<svg width="1440" height="904" viewBox="0 0 1440 904" fill="none" xmlns="http://www.w3.org/2000/svg">
<rect width="1440" height="904" fill="#121214"/>
<rect x="160" y="80" width="1120" height="740" rx="8" fill="#202024"/>
<path opacity="0.5" d="M239.99 128.27L230.203 164.833C230.154 164.999 229.954 165.049 229.838 164.933L223.286 158.377L228.196 140.054C228.246 139.888 228.097 139.739 227.931 139.789L209.618 144.701L203.099 138.179C202.983 138.062 203.033 137.863 203.198 137.813L239.725 128.005C239.891 127.971 240.04 128.121 239.99 128.27Z" fill="#00B37E"/>
<path opacity="0.5" d="M223.286 158.377L220.765 167.837C220.715 168.003 220.516 168.053 220.4 167.937L200.063 147.605C199.947 147.489 199.997 147.29 200.163 147.24L209.618 144.701L223.286 158.377Z" fill="#00B37E"/>
<path d="M228.195 140.054L223.285 158.377L209.617 144.701L227.93 139.788C228.096 139.738 228.245 139.888 228.195 140.054Z" fill="#00B37E"/>
<path fill-rule="evenodd" clip-rule="evenodd" d="M1222 132C1222.45 131.998 1222.9 132.092 1223.31 132.275C1223.73 132.459 1224.11 132.729 1224.43 133.071C1224.75 133.412 1225 133.817 1225.17 134.263C1225.34 134.709 1225.43 135.186 1225.43 135.668L1225.43 135.67L1224.57 135.667H1225.43V135.668V148.5C1225.43 149.006 1225.04 149.416 1224.57 149.416C1224.1 149.416 1223.71 149.006 1223.71 148.5V135.667L1223.71 135.663C1223.72 135.422 1223.67 135.184 1223.59 134.961C1223.5 134.739 1223.37 134.537 1223.22 134.367C1223.06 134.197 1222.87 134.062 1222.66 133.971C1222.45 133.879 1222.23 133.832 1222 133.833L1222 133.833H1207.43C1206.96 133.833 1206.57 133.423 1206.57 132.917C1206.57 132.41 1206.96 132 1207.43 132H1222ZM1222 132L1222 132L1222 132.917V132H1222Z" fill="#E1E1E6"/>
<path fill-rule="evenodd" clip-rule="evenodd" d="M1213.43 140.253C1213.43 139.746 1213.81 139.336 1214.28 139.336H1221.14C1221.62 139.336 1222 139.746 1222 140.253C1222 140.759 1221.62 141.169 1221.14 141.169H1214.28C1213.81 141.169 1213.43 140.759 1213.43 140.253Z" fill="#E1E1E6"/>
<path fill-rule="evenodd" clip-rule="evenodd" d="M1213.43 143.921C1213.43 143.414 1213.81 143.004 1214.28 143.004H1221.14C1221.62 143.004 1222 143.414 1222 143.921C1222 144.427 1221.62 144.837 1221.14 144.837H1214.28C1213.81 144.837 1213.43 144.427 1213.43 143.921Z" fill="#E1E1E6"/>
<path fill-rule="evenodd" clip-rule="evenodd" d="M1207.63 133.846C1207.36 133.811 1207.08 133.848 1206.82 133.954C1206.56 134.06 1206.33 134.232 1206.14 134.455C1205.96 134.678 1205.83 134.945 1205.76 135.234C1205.7 135.522 1205.7 135.824 1205.77 136.112C1205.83 136.4 1205.96 136.666 1206.15 136.888C1206.47 137.266 1206.43 137.845 1206.08 138.182C1205.73 138.519 1205.19 138.487 1204.87 138.109C1204.5 137.666 1204.24 137.133 1204.1 136.557C1203.97 135.981 1203.97 135.378 1204.1 134.801C1204.23 134.223 1204.49 133.689 1204.86 133.243C1205.22 132.797 1205.69 132.453 1206.21 132.241C1206.72 132.03 1207.28 131.956 1207.84 132.026C1208.39 132.097 1208.91 132.31 1209.37 132.646C1209.83 132.983 1210.2 133.434 1210.46 133.96C1210.72 134.486 1210.86 135.071 1210.86 135.665V150.331C1210.86 150.628 1210.92 150.921 1211.05 151.184C1211.18 151.447 1211.37 151.672 1211.6 151.84C1211.83 152.009 1212.09 152.115 1212.37 152.15C1212.64 152.186 1212.92 152.149 1213.18 152.043C1213.44 151.937 1213.67 151.765 1213.86 151.542C1214.04 151.319 1214.17 151.052 1214.24 150.763C1214.3 150.475 1214.3 150.173 1214.23 149.885C1214.17 149.597 1214.03 149.33 1213.85 149.109C1213.62 148.839 1213.57 148.454 1213.71 148.124C1213.84 147.794 1214.15 147.582 1214.49 147.582H1226.49C1226.73 147.582 1226.96 147.693 1227.13 147.887C1227.57 148.415 1227.86 149.068 1227.96 149.767C1228.06 150.467 1227.97 151.183 1227.7 151.829C1227.43 152.475 1226.99 153.024 1226.44 153.409C1225.88 153.794 1225.23 153.998 1224.57 153.998H1212.57C1212.55 153.998 1212.53 153.997 1212.51 153.996C1212.4 153.994 1212.28 153.986 1212.16 153.971C1211.61 153.9 1211.09 153.687 1210.63 153.351C1210.17 153.014 1209.8 152.563 1209.54 152.037C1209.28 151.511 1209.14 150.926 1209.14 150.332V135.666C1209.14 135.369 1209.07 135.076 1208.95 134.813C1208.82 134.55 1208.63 134.325 1208.4 134.157C1208.17 133.988 1207.91 133.882 1207.63 133.846ZM1215.54 152.165H1224.57C1224.9 152.165 1225.23 152.063 1225.5 151.87C1225.78 151.678 1226 151.403 1226.14 151.08C1226.27 150.757 1226.32 150.399 1226.27 150.049C1226.23 149.825 1226.16 149.61 1226.06 149.415H1215.89C1215.89 149.423 1215.89 149.432 1215.9 149.44C1216.03 150.016 1216.03 150.619 1215.9 151.196C1215.82 151.537 1215.7 151.863 1215.54 152.165Z" fill="#E1E1E6"/>
<path fill-rule="evenodd" clip-rule="evenodd" d="M1155.7 130C1155.7 129.448 1156.14 129 1156.69 129H1162.15C1162.69 129 1163.14 129.448 1163.14 130C1163.14 130.552 1162.69 131 1162.15 131H1156.69C1156.14 131 1155.7 130.552 1155.7 130ZM1159.42 134.692C1154.43 134.692 1150.39 138.791 1150.39 143.846C1150.39 148.902 1154.43 153 1159.42 153C1164.4 153 1168.45 148.902 1168.45 143.846C1168.45 138.791 1164.4 134.692 1159.42 134.692ZM1148.42 143.846C1148.42 137.686 1153.34 132.692 1159.42 132.692C1165.49 132.692 1170.42 137.686 1170.42 143.846C1170.42 150.006 1165.49 155 1159.42 155C1153.34 155 1148.42 150.006 1148.42 143.846ZM1164.62 138.569C1165.01 138.96 1165.01 139.593 1164.62 139.984L1160.12 144.553C1159.73 144.943 1159.11 144.943 1158.72 144.553C1158.34 144.162 1158.34 143.529 1158.72 143.139L1163.23 138.569C1163.61 138.179 1164.24 138.179 1164.62 138.569Z" fill="#00875F"/>
<path d="M256 288H1180C1184.42 288 1188 291.582 1188 296V344H256V288Z" fill="#323238"/>
<path d="M285.339 310.047V320H283.295V310.047H285.339ZM288.401 310.047V311.653H280.28V310.047H288.401ZM292.4 318.332V315.037C292.4 314.8 292.362 314.597 292.284 314.429C292.207 314.256 292.086 314.121 291.922 314.025C291.762 313.93 291.555 313.882 291.3 313.882C291.081 313.882 290.892 313.921 290.732 313.998C290.573 314.071 290.45 314.178 290.363 314.319C290.277 314.456 290.233 314.618 290.233 314.805H288.265C288.265 314.49 288.338 314.192 288.483 313.909C288.629 313.627 288.841 313.378 289.119 313.164C289.397 312.945 289.728 312.774 290.11 312.651C290.498 312.528 290.931 312.467 291.409 312.467C291.983 312.467 292.494 312.562 292.94 312.754C293.387 312.945 293.738 313.232 293.993 313.615C294.253 313.998 294.383 314.477 294.383 315.051V318.216C294.383 318.621 294.408 318.954 294.458 319.214C294.508 319.469 294.581 319.692 294.677 319.884V320H292.688C292.592 319.799 292.519 319.549 292.469 319.248C292.423 318.943 292.4 318.637 292.4 318.332ZM292.66 315.495L292.674 316.609H291.573C291.313 316.609 291.088 316.639 290.896 316.698C290.705 316.757 290.548 316.842 290.425 316.951C290.302 317.056 290.211 317.179 290.151 317.32C290.097 317.462 290.069 317.617 290.069 317.785C290.069 317.954 290.108 318.106 290.186 318.243C290.263 318.375 290.375 318.48 290.521 318.558C290.666 318.631 290.837 318.667 291.033 318.667C291.329 318.667 291.587 318.608 291.806 318.489C292.024 318.371 292.193 318.225 292.312 318.052C292.435 317.879 292.498 317.715 292.503 317.56L293.022 318.394C292.95 318.58 292.849 318.774 292.722 318.975C292.599 319.175 292.441 319.364 292.25 319.542C292.059 319.715 291.828 319.859 291.56 319.973C291.291 320.082 290.972 320.137 290.603 320.137C290.133 320.137 289.707 320.043 289.324 319.856C288.946 319.665 288.645 319.403 288.422 319.07C288.203 318.733 288.094 318.35 288.094 317.922C288.094 317.535 288.167 317.19 288.312 316.89C288.458 316.589 288.673 316.336 288.955 316.131C289.242 315.921 289.6 315.764 290.028 315.659C290.457 315.55 290.953 315.495 291.519 315.495H292.66ZM297.869 314.217V320H295.9V312.604H297.753L297.869 314.217ZM300.098 312.556L300.063 314.381C299.968 314.367 299.852 314.356 299.715 314.347C299.583 314.333 299.462 314.326 299.353 314.326C299.075 314.326 298.833 314.363 298.628 314.436C298.427 314.504 298.259 314.606 298.122 314.743C297.99 314.88 297.89 315.046 297.821 315.242C297.757 315.438 297.721 315.661 297.712 315.912L297.315 315.789C297.315 315.311 297.363 314.871 297.459 314.47C297.555 314.064 297.694 313.711 297.876 313.41C298.063 313.109 298.291 312.877 298.56 312.713C298.828 312.549 299.136 312.467 299.482 312.467C299.592 312.467 299.703 312.476 299.817 312.494C299.931 312.508 300.025 312.528 300.098 312.556ZM304.295 320.137C303.721 320.137 303.206 320.046 302.75 319.863C302.294 319.676 301.907 319.419 301.588 319.091C301.273 318.763 301.032 318.382 300.863 317.949C300.695 317.512 300.61 317.047 300.61 316.555V316.281C300.61 315.721 300.69 315.208 300.85 314.743C301.009 314.278 301.237 313.875 301.533 313.533C301.834 313.191 302.199 312.929 302.627 312.747C303.055 312.56 303.538 312.467 304.076 312.467C304.6 312.467 305.065 312.553 305.471 312.727C305.876 312.9 306.216 313.146 306.489 313.465C306.767 313.784 306.977 314.167 307.118 314.613C307.259 315.055 307.33 315.548 307.33 316.09V316.91H301.451V315.598H305.396V315.447C305.396 315.174 305.345 314.93 305.245 314.716C305.149 314.497 305.004 314.324 304.808 314.196C304.612 314.069 304.361 314.005 304.056 314.005C303.796 314.005 303.573 314.062 303.386 314.176C303.199 314.29 303.046 314.449 302.928 314.654C302.814 314.859 302.727 315.101 302.668 315.379C302.613 315.652 302.586 315.953 302.586 316.281V316.555C302.586 316.851 302.627 317.124 302.709 317.375C302.796 317.626 302.916 317.842 303.071 318.024C303.231 318.207 303.422 318.348 303.646 318.448C303.873 318.549 304.131 318.599 304.418 318.599C304.773 318.599 305.104 318.53 305.409 318.394C305.719 318.252 305.986 318.04 306.209 317.758L307.166 318.797C307.011 319.02 306.799 319.234 306.53 319.439C306.266 319.645 305.947 319.813 305.573 319.945C305.2 320.073 304.773 320.137 304.295 320.137ZM310.96 320H308.978V311.947C308.978 311.387 309.087 310.915 309.306 310.532C309.529 310.145 309.841 309.853 310.242 309.657C310.648 309.457 311.129 309.356 311.685 309.356C311.867 309.356 312.042 309.37 312.211 309.397C312.38 309.42 312.544 309.45 312.703 309.486L312.683 310.97C312.596 310.947 312.505 310.931 312.409 310.922C312.313 310.913 312.202 310.908 312.074 310.908C311.837 310.908 311.634 310.949 311.466 311.031C311.302 311.109 311.176 311.225 311.09 311.38C311.003 311.535 310.96 311.724 310.96 311.947V320ZM312.437 312.604V313.998H307.877V312.604H312.437ZM317.461 318.332V315.037C317.461 314.8 317.422 314.597 317.345 314.429C317.267 314.256 317.146 314.121 316.982 314.025C316.823 313.93 316.616 313.882 316.36 313.882C316.142 313.882 315.952 313.921 315.793 313.998C315.633 314.071 315.51 314.178 315.424 314.319C315.337 314.456 315.294 314.618 315.294 314.805H313.325C313.325 314.49 313.398 314.192 313.544 313.909C313.69 313.627 313.902 313.378 314.18 313.164C314.458 312.945 314.788 312.774 315.171 312.651C315.558 312.528 315.991 312.467 316.47 312.467C317.044 312.467 317.554 312.562 318.001 312.754C318.448 312.945 318.799 313.232 319.054 313.615C319.313 313.998 319.443 314.477 319.443 315.051V318.216C319.443 318.621 319.468 318.954 319.519 319.214C319.569 319.469 319.642 319.692 319.737 319.884V320H317.748C317.652 319.799 317.579 319.549 317.529 319.248C317.484 318.943 317.461 318.637 317.461 318.332ZM317.721 315.495L317.734 316.609H316.634C316.374 316.609 316.148 316.639 315.957 316.698C315.766 316.757 315.608 316.842 315.485 316.951C315.362 317.056 315.271 317.179 315.212 317.32C315.157 317.462 315.13 317.617 315.13 317.785C315.13 317.954 315.169 318.106 315.246 318.243C315.324 318.375 315.435 318.48 315.581 318.558C315.727 318.631 315.898 318.667 316.094 318.667C316.39 318.667 316.647 318.608 316.866 318.489C317.085 318.371 317.254 318.225 317.372 318.052C317.495 317.879 317.559 317.715 317.563 317.56L318.083 318.394C318.01 318.58 317.91 318.774 317.782 318.975C317.659 319.175 317.502 319.364 317.311 319.542C317.119 319.715 316.889 319.859 316.62 319.973C316.351 320.082 316.032 320.137 315.663 320.137C315.194 320.137 314.768 320.043 314.385 319.856C314.007 319.665 313.706 319.403 313.482 319.07C313.264 318.733 313.154 318.35 313.154 317.922C313.154 317.535 313.227 317.19 313.373 316.89C313.519 316.589 313.733 316.336 314.016 316.131C314.303 315.921 314.66 315.764 315.089 315.659C315.517 315.55 316.014 315.495 316.579 315.495H317.721Z" fill="#E1E1E6"/>
<path d="M723.944 320H721.777L721.791 318.4H723.944C724.482 318.4 724.936 318.28 725.305 318.038C725.674 317.792 725.952 317.434 726.139 316.965C726.33 316.495 726.426 315.928 726.426 315.263V314.777C726.426 314.267 726.371 313.818 726.262 313.431C726.157 313.043 726 312.717 725.79 312.453C725.58 312.189 725.323 311.991 725.018 311.858C724.712 311.722 724.361 311.653 723.965 311.653H721.736V310.047H723.965C724.63 310.047 725.239 310.161 725.79 310.389C726.346 310.612 726.827 310.933 727.232 311.353C727.638 311.772 727.95 312.273 728.169 312.856C728.392 313.435 728.504 314.08 728.504 314.791V315.263C728.504 315.969 728.392 316.614 728.169 317.197C727.95 317.781 727.638 318.282 727.232 318.701C726.831 319.116 726.351 319.437 725.79 319.665C725.234 319.888 724.619 320 723.944 320ZM722.939 310.047V320H720.889V310.047H722.939ZM734.246 318.229V312.604H736.215V320H734.362L734.246 318.229ZM734.465 316.712L735.046 316.698C735.046 317.19 734.989 317.648 734.875 318.072C734.761 318.492 734.59 318.856 734.362 319.166C734.134 319.471 733.847 319.711 733.501 319.884C733.155 320.052 732.747 320.137 732.277 320.137C731.917 320.137 731.585 320.087 731.279 319.986C730.979 319.882 730.719 319.72 730.5 319.501C730.286 319.278 730.117 318.993 729.994 318.646C729.876 318.296 729.816 317.874 729.816 317.382V312.604H731.785V317.396C731.785 317.614 731.81 317.799 731.86 317.949C731.915 318.1 731.99 318.223 732.086 318.318C732.182 318.414 732.293 318.482 732.421 318.523C732.553 318.564 732.699 318.585 732.858 318.585C733.264 318.585 733.583 318.503 733.815 318.339C734.052 318.175 734.219 317.951 734.314 317.669C734.415 317.382 734.465 317.063 734.465 316.712ZM739.688 314.217V320H737.719V312.604H739.571L739.688 314.217ZM741.916 312.556L741.882 314.381C741.786 314.367 741.67 314.356 741.533 314.347C741.401 314.333 741.28 314.326 741.171 314.326C740.893 314.326 740.651 314.363 740.446 314.436C740.246 314.504 740.077 314.606 739.94 314.743C739.808 314.88 739.708 315.046 739.64 315.242C739.576 315.438 739.539 315.661 739.53 315.912L739.134 315.789C739.134 315.311 739.182 314.871 739.277 314.47C739.373 314.064 739.512 313.711 739.694 313.41C739.881 313.109 740.109 312.877 740.378 312.713C740.647 312.549 740.954 312.467 741.301 312.467C741.41 312.467 741.522 312.476 741.636 312.494C741.75 312.508 741.843 312.528 741.916 312.556ZM746.605 318.332V315.037C746.605 314.8 746.567 314.597 746.489 314.429C746.412 314.256 746.291 314.121 746.127 314.025C745.967 313.93 745.76 313.882 745.505 313.882C745.286 313.882 745.097 313.921 744.938 313.998C744.778 314.071 744.655 314.178 744.568 314.319C744.482 314.456 744.438 314.618 744.438 314.805H742.47C742.47 314.49 742.543 314.192 742.688 313.909C742.834 313.627 743.046 313.378 743.324 313.164C743.602 312.945 743.933 312.774 744.315 312.651C744.703 312.528 745.136 312.467 745.614 312.467C746.188 312.467 746.699 312.562 747.146 312.754C747.592 312.945 747.943 313.232 748.198 313.615C748.458 313.998 748.588 314.477 748.588 315.051V318.216C748.588 318.621 748.613 318.954 748.663 319.214C748.713 319.469 748.786 319.692 748.882 319.884V320H746.893C746.797 319.799 746.724 319.549 746.674 319.248C746.628 318.943 746.605 318.637 746.605 318.332ZM746.865 315.495L746.879 316.609H745.778C745.519 316.609 745.293 316.639 745.102 316.698C744.91 316.757 744.753 316.842 744.63 316.951C744.507 317.056 744.416 317.179 744.356 317.32C744.302 317.462 744.274 317.617 744.274 317.785C744.274 317.954 744.313 318.106 744.391 318.243C744.468 318.375 744.58 318.48 744.726 318.558C744.871 318.631 745.042 318.667 745.238 318.667C745.535 318.667 745.792 318.608 746.011 318.489C746.229 318.371 746.398 318.225 746.517 318.052C746.64 317.879 746.703 317.715 746.708 317.56L747.228 318.394C747.155 318.58 747.054 318.774 746.927 318.975C746.804 319.175 746.646 319.364 746.455 319.542C746.264 319.715 746.034 319.859 745.765 319.973C745.496 320.082 745.177 320.137 744.808 320.137C744.338 320.137 743.912 320.043 743.529 319.856C743.151 319.665 742.85 319.403 742.627 319.07C742.408 318.733 742.299 318.35 742.299 317.922C742.299 317.535 742.372 317.19 742.518 316.89C742.663 316.589 742.878 316.336 743.16 316.131C743.447 315.921 743.805 315.764 744.233 315.659C744.662 315.55 745.159 315.495 745.724 315.495H746.865ZM753.161 318.599C753.403 318.599 753.617 318.553 753.804 318.462C753.991 318.366 754.136 318.234 754.241 318.065C754.351 317.892 754.408 317.689 754.412 317.457H756.265C756.26 317.977 756.121 318.439 755.848 318.845C755.574 319.246 755.207 319.562 754.747 319.795C754.287 320.023 753.772 320.137 753.202 320.137C752.628 320.137 752.127 320.041 751.698 319.85C751.274 319.658 750.921 319.394 750.639 319.057C750.356 318.715 750.144 318.318 750.003 317.867C749.862 317.411 749.791 316.924 749.791 316.404V316.206C749.791 315.682 749.862 315.194 750.003 314.743C750.144 314.287 750.356 313.891 750.639 313.554C750.921 313.212 751.274 312.945 751.698 312.754C752.122 312.562 752.619 312.467 753.188 312.467C753.795 312.467 754.326 312.583 754.781 312.815C755.242 313.048 755.602 313.381 755.861 313.813C756.126 314.242 756.26 314.75 756.265 315.338H754.412C754.408 315.092 754.355 314.868 754.255 314.668C754.159 314.467 754.018 314.308 753.831 314.189C753.649 314.066 753.423 314.005 753.154 314.005C752.867 314.005 752.632 314.066 752.45 314.189C752.268 314.308 752.127 314.472 752.026 314.682C751.926 314.887 751.855 315.121 751.814 315.386C751.778 315.646 751.76 315.919 751.76 316.206V316.404C751.76 316.691 751.778 316.967 751.814 317.231C751.851 317.496 751.919 317.73 752.02 317.936C752.124 318.141 752.268 318.302 752.45 318.421C752.632 318.539 752.869 318.599 753.161 318.599ZM752.423 319.973H753.906L753.831 320.376C754.091 320.422 754.328 320.531 754.542 320.704C754.756 320.877 754.863 321.162 754.863 321.559C754.863 321.8 754.811 322.019 754.706 322.215C754.606 322.411 754.455 322.579 754.255 322.721C754.054 322.867 753.804 322.976 753.503 323.049C753.202 323.126 752.856 323.165 752.464 323.165L752.416 322.071C752.562 322.071 752.694 322.051 752.812 322.01C752.931 321.969 753.024 321.905 753.093 321.818C753.161 321.736 753.195 321.627 753.195 321.49C753.195 321.363 753.161 321.262 753.093 321.189C753.024 321.117 752.917 321.062 752.771 321.025C752.63 320.989 752.443 320.964 752.211 320.95L752.423 319.973ZM761.398 318.332V315.037C761.398 314.8 761.36 314.597 761.282 314.429C761.205 314.256 761.084 314.121 760.92 314.025C760.76 313.93 760.553 313.882 760.298 313.882C760.079 313.882 759.89 313.921 759.73 313.998C759.571 314.071 759.448 314.178 759.361 314.319C759.275 314.456 759.231 314.618 759.231 314.805H757.263C757.263 314.49 757.336 314.192 757.481 313.909C757.627 313.627 757.839 313.378 758.117 313.164C758.395 312.945 758.726 312.774 759.108 312.651C759.496 312.528 759.929 312.467 760.407 312.467C760.981 312.467 761.492 312.562 761.938 312.754C762.385 312.945 762.736 313.232 762.991 313.615C763.251 313.998 763.381 314.477 763.381 315.051V318.216C763.381 318.621 763.406 318.954 763.456 319.214C763.506 319.469 763.579 319.692 763.675 319.884V320H761.686C761.59 319.799 761.517 319.549 761.467 319.248C761.421 318.943 761.398 318.637 761.398 318.332ZM761.658 315.495L761.672 316.609H760.571C760.312 316.609 760.086 316.639 759.895 316.698C759.703 316.757 759.546 316.842 759.423 316.951C759.3 317.056 759.209 317.179 759.149 317.32C759.095 317.462 759.067 317.617 759.067 317.785C759.067 317.954 759.106 318.106 759.184 318.243C759.261 318.375 759.373 318.48 759.519 318.558C759.664 318.631 759.835 318.667 760.031 318.667C760.327 318.667 760.585 318.608 760.804 318.489C761.022 318.371 761.191 318.225 761.31 318.052C761.433 317.879 761.496 317.715 761.501 317.56L762.021 318.394C761.948 318.58 761.847 318.774 761.72 318.975C761.597 319.175 761.439 319.364 761.248 319.542C761.057 319.715 760.826 319.859 760.558 319.973C760.289 320.082 759.97 320.137 759.601 320.137C759.131 320.137 758.705 320.043 758.322 319.856C757.944 319.665 757.643 319.403 757.42 319.07C757.201 318.733 757.092 318.35 757.092 317.922C757.092 317.535 757.165 317.19 757.311 316.89C757.456 316.589 757.671 316.336 757.953 316.131C758.24 315.921 758.598 315.764 759.026 315.659C759.455 315.55 759.951 315.495 760.517 315.495H761.658ZM761.836 309.534L762.971 309.609C762.971 309.942 762.905 310.245 762.772 310.519C762.64 310.787 762.458 311.004 762.226 311.168C761.993 311.327 761.727 311.407 761.426 311.407C761.207 311.407 761.018 311.378 760.858 311.318C760.703 311.259 760.56 311.191 760.428 311.113C760.296 311.031 760.159 310.961 760.018 310.901C759.881 310.842 759.724 310.812 759.546 310.812C759.386 310.812 759.25 310.869 759.136 310.983C759.026 311.097 758.972 311.261 758.972 311.476L757.83 311.414C757.83 311.086 757.896 310.785 758.028 310.512C758.16 310.238 758.343 310.02 758.575 309.855C758.808 309.687 759.072 309.603 759.368 309.603C759.555 309.603 759.726 309.634 759.881 309.698C760.036 309.757 760.184 309.826 760.325 309.903C760.471 309.981 760.619 310.049 760.77 310.108C760.92 310.168 761.079 310.197 761.248 310.197C761.408 310.197 761.544 310.14 761.658 310.026C761.777 309.908 761.836 309.744 761.836 309.534ZM764.584 316.377V316.233C764.584 315.691 764.661 315.192 764.816 314.736C764.971 314.276 765.197 313.877 765.493 313.54C765.789 313.203 766.154 312.941 766.587 312.754C767.02 312.562 767.517 312.467 768.077 312.467C768.638 312.467 769.137 312.562 769.574 312.754C770.012 312.941 770.379 313.203 770.675 313.54C770.976 313.877 771.203 314.276 771.358 314.736C771.513 315.192 771.591 315.691 771.591 316.233V316.377C771.591 316.915 771.513 317.414 771.358 317.874C771.203 318.33 770.976 318.729 770.675 319.07C770.379 319.408 770.014 319.67 769.581 319.856C769.148 320.043 768.651 320.137 768.091 320.137C767.53 320.137 767.031 320.043 766.594 319.856C766.161 319.67 765.794 319.408 765.493 319.07C765.197 318.729 764.971 318.33 764.816 317.874C764.661 317.414 764.584 316.915 764.584 316.377ZM766.553 316.233V316.377C766.553 316.687 766.58 316.976 766.635 317.245C766.689 317.514 766.776 317.751 766.895 317.956C767.018 318.157 767.177 318.314 767.373 318.428C767.569 318.542 767.808 318.599 768.091 318.599C768.364 318.599 768.599 318.542 768.795 318.428C768.991 318.314 769.148 318.157 769.267 317.956C769.385 317.751 769.472 317.514 769.526 317.245C769.586 316.976 769.615 316.687 769.615 316.377V316.233C769.615 315.933 769.586 315.65 769.526 315.386C769.472 315.117 769.383 314.88 769.26 314.675C769.141 314.465 768.984 314.301 768.788 314.183C768.592 314.064 768.355 314.005 768.077 314.005C767.799 314.005 767.562 314.064 767.366 314.183C767.175 314.301 767.018 314.465 766.895 314.675C766.776 314.88 766.689 315.117 766.635 315.386C766.58 315.65 766.553 315.933 766.553 316.233Z" fill="#E1E1E6"/>
<path d="M850.069 310.047V320H848.025V310.047H850.069ZM853.795 314.183V320H851.826V312.604H853.672L853.795 314.183ZM853.508 316.042H852.975C852.975 315.495 853.045 315.003 853.187 314.565C853.328 314.123 853.526 313.747 853.781 313.438C854.036 313.123 854.34 312.884 854.69 312.72C855.046 312.551 855.442 312.467 855.88 312.467C856.226 312.467 856.543 312.517 856.83 312.617C857.117 312.717 857.363 312.877 857.568 313.096C857.778 313.314 857.938 313.604 858.047 313.964C858.161 314.324 858.218 314.764 858.218 315.283V320H856.235V315.276C856.235 314.948 856.19 314.693 856.099 314.511C856.007 314.328 855.873 314.201 855.695 314.128C855.522 314.05 855.308 314.012 855.053 314.012C854.788 314.012 854.558 314.064 854.362 314.169C854.171 314.274 854.011 314.42 853.884 314.606C853.761 314.789 853.667 315.003 853.604 315.249C853.54 315.495 853.508 315.759 853.508 316.042ZM861.841 312.604V320H859.865V312.604H861.841ZM859.927 311.708L861.267 309.603H863.406L861.526 311.708H859.927ZM866.599 318.599C866.84 318.599 867.054 318.553 867.241 318.462C867.428 318.366 867.574 318.234 867.679 318.065C867.788 317.892 867.845 317.689 867.85 317.457H869.702C869.698 317.977 869.559 318.439 869.285 318.845C869.012 319.246 868.645 319.562 868.185 319.795C867.724 320.023 867.209 320.137 866.64 320.137C866.065 320.137 865.564 320.041 865.136 319.85C864.712 319.658 864.359 319.394 864.076 319.057C863.794 318.715 863.582 318.318 863.44 317.867C863.299 317.411 863.229 316.924 863.229 316.404V316.206C863.229 315.682 863.299 315.194 863.44 314.743C863.582 314.287 863.794 313.891 864.076 313.554C864.359 313.212 864.712 312.945 865.136 312.754C865.56 312.562 866.056 312.467 866.626 312.467C867.232 312.467 867.763 312.583 868.219 312.815C868.679 313.048 869.039 313.381 869.299 313.813C869.563 314.242 869.698 314.75 869.702 315.338H867.85C867.845 315.092 867.793 314.868 867.692 314.668C867.597 314.467 867.455 314.308 867.269 314.189C867.086 314.066 866.861 314.005 866.592 314.005C866.305 314.005 866.07 314.066 865.888 314.189C865.705 314.308 865.564 314.472 865.464 314.682C865.364 314.887 865.293 315.121 865.252 315.386C865.215 315.646 865.197 315.919 865.197 316.206V316.404C865.197 316.691 865.215 316.967 865.252 317.231C865.288 317.496 865.357 317.73 865.457 317.936C865.562 318.141 865.705 318.302 865.888 318.421C866.07 318.539 866.307 318.599 866.599 318.599ZM872.922 312.604V320H870.946V312.604H872.922ZM870.823 310.676C870.823 310.389 870.924 310.152 871.124 309.965C871.325 309.778 871.593 309.685 871.931 309.685C872.263 309.685 872.53 309.778 872.73 309.965C872.936 310.152 873.038 310.389 873.038 310.676C873.038 310.963 872.936 311.2 872.73 311.387C872.53 311.574 872.263 311.667 871.931 311.667C871.593 311.667 871.325 311.574 871.124 311.387C870.924 311.2 870.823 310.963 870.823 310.676ZM874.234 316.377V316.233C874.234 315.691 874.312 315.192 874.467 314.736C874.622 314.276 874.847 313.877 875.144 313.54C875.44 313.203 875.804 312.941 876.237 312.754C876.67 312.562 877.167 312.467 877.728 312.467C878.288 312.467 878.787 312.562 879.225 312.754C879.662 312.941 880.029 313.203 880.325 313.54C880.626 313.877 880.854 314.276 881.009 314.736C881.164 315.192 881.241 315.691 881.241 316.233V316.377C881.241 316.915 881.164 317.414 881.009 317.874C880.854 318.33 880.626 318.729 880.325 319.07C880.029 319.408 879.664 319.67 879.231 319.856C878.799 320.043 878.302 320.137 877.741 320.137C877.181 320.137 876.682 320.043 876.244 319.856C875.811 319.67 875.444 319.408 875.144 319.07C874.847 318.729 874.622 318.33 874.467 317.874C874.312 317.414 874.234 316.915 874.234 316.377ZM876.203 316.233V316.377C876.203 316.687 876.23 316.976 876.285 317.245C876.34 317.514 876.426 317.751 876.545 317.956C876.668 318.157 876.827 318.314 877.023 318.428C877.219 318.542 877.459 318.599 877.741 318.599C878.015 318.599 878.249 318.542 878.445 318.428C878.641 318.314 878.799 318.157 878.917 317.956C879.035 317.751 879.122 317.514 879.177 317.245C879.236 316.976 879.266 316.687 879.266 316.377V316.233C879.266 315.933 879.236 315.65 879.177 315.386C879.122 315.117 879.033 314.88 878.91 314.675C878.792 314.465 878.634 314.301 878.438 314.183C878.243 314.064 878.006 314.005 877.728 314.005C877.45 314.005 877.213 314.064 877.017 314.183C876.825 314.301 876.668 314.465 876.545 314.675C876.426 314.88 876.34 315.117 876.285 315.386C876.23 315.65 876.203 315.933 876.203 316.233Z" fill="#E1E1E6"/>
<path d="M1040.07 317.396C1040.07 317.218 1040.04 317.058 1039.99 316.917C1039.94 316.771 1039.84 316.639 1039.7 316.521C1039.56 316.397 1039.36 316.277 1039.11 316.158C1038.85 316.04 1038.52 315.917 1038.12 315.789C1037.66 315.643 1037.24 315.479 1036.83 315.297C1036.43 315.115 1036.07 314.903 1035.76 314.661C1035.46 314.415 1035.22 314.13 1035.04 313.807C1034.87 313.483 1034.78 313.107 1034.78 312.679C1034.78 312.264 1034.87 311.888 1035.05 311.551C1035.24 311.209 1035.49 310.917 1035.82 310.676C1036.15 310.43 1036.53 310.241 1036.98 310.108C1037.43 309.976 1037.93 309.91 1038.46 309.91C1039.2 309.91 1039.84 310.042 1040.38 310.307C1040.93 310.571 1041.36 310.933 1041.66 311.394C1041.96 311.854 1042.11 312.38 1042.11 312.973H1040.08C1040.08 312.681 1040.02 312.426 1039.89 312.207C1039.77 311.984 1039.59 311.808 1039.35 311.681C1039.1 311.553 1038.8 311.489 1038.43 311.489C1038.07 311.489 1037.78 311.544 1037.54 311.653C1037.3 311.758 1037.13 311.902 1037.01 312.084C1036.89 312.262 1036.83 312.462 1036.83 312.686C1036.83 312.854 1036.87 313.007 1036.95 313.144C1037.04 313.28 1037.17 313.408 1037.34 313.526C1037.5 313.645 1037.71 313.757 1037.96 313.861C1038.2 313.966 1038.49 314.069 1038.81 314.169C1039.35 314.333 1039.83 314.518 1040.24 314.723C1040.66 314.928 1041 315.158 1041.28 315.413C1041.56 315.668 1041.77 315.958 1041.91 316.281C1042.05 316.605 1042.12 316.972 1042.12 317.382C1042.12 317.815 1042.04 318.202 1041.87 318.544C1041.7 318.886 1041.46 319.175 1041.14 319.412C1040.82 319.649 1040.44 319.829 1040 319.952C1039.55 320.075 1039.06 320.137 1038.51 320.137C1038.02 320.137 1037.53 320.073 1037.06 319.945C1036.58 319.813 1036.14 319.615 1035.75 319.351C1035.36 319.086 1035.05 318.749 1034.82 318.339C1034.59 317.929 1034.47 317.443 1034.47 316.883H1036.53C1036.53 317.193 1036.58 317.455 1036.67 317.669C1036.77 317.883 1036.9 318.056 1037.08 318.188C1037.25 318.321 1037.46 318.416 1037.71 318.476C1037.95 318.535 1038.22 318.564 1038.51 318.564C1038.87 318.564 1039.16 318.514 1039.39 318.414C1039.62 318.314 1039.79 318.175 1039.9 317.997C1040.01 317.819 1040.07 317.619 1040.07 317.396ZM1047.02 312.604V313.998H1042.71V312.604H1047.02ZM1043.78 310.778H1045.74V317.771C1045.74 317.986 1045.77 318.15 1045.83 318.264C1045.89 318.378 1045.97 318.457 1046.09 318.503C1046.2 318.544 1046.34 318.564 1046.52 318.564C1046.64 318.564 1046.75 318.56 1046.84 318.551C1046.94 318.537 1047.03 318.523 1047.1 318.51L1047.1 319.959C1046.94 320.014 1046.75 320.057 1046.56 320.089C1046.36 320.121 1046.15 320.137 1045.91 320.137C1045.48 320.137 1045.1 320.066 1044.77 319.925C1044.45 319.779 1044.21 319.547 1044.04 319.228C1043.86 318.909 1043.78 318.489 1043.78 317.97V310.778ZM1052.13 318.332V315.037C1052.13 314.8 1052.09 314.597 1052.01 314.429C1051.94 314.256 1051.81 314.121 1051.65 314.025C1051.49 313.93 1051.28 313.882 1051.03 313.882C1050.81 313.882 1050.62 313.921 1050.46 313.998C1050.3 314.071 1050.18 314.178 1050.09 314.319C1050.01 314.456 1049.96 314.618 1049.96 314.805H1047.99C1047.99 314.49 1048.07 314.192 1048.21 313.909C1048.36 313.627 1048.57 313.378 1048.85 313.164C1049.13 312.945 1049.46 312.774 1049.84 312.651C1050.23 312.528 1050.66 312.467 1051.14 312.467C1051.71 312.467 1052.22 312.562 1052.67 312.754C1053.12 312.945 1053.47 313.232 1053.72 313.615C1053.98 313.998 1054.11 314.477 1054.11 315.051V318.216C1054.11 318.621 1054.14 318.954 1054.19 319.214C1054.24 319.469 1054.31 319.692 1054.41 319.884V320H1052.42C1052.32 319.799 1052.25 319.549 1052.2 319.248C1052.15 318.943 1052.13 318.637 1052.13 318.332ZM1052.39 315.495L1052.4 316.609H1051.3C1051.04 316.609 1050.82 316.639 1050.62 316.698C1050.43 316.757 1050.28 316.842 1050.15 316.951C1050.03 317.056 1049.94 317.179 1049.88 317.32C1049.83 317.462 1049.8 317.617 1049.8 317.785C1049.8 317.954 1049.84 318.106 1049.91 318.243C1049.99 318.375 1050.1 318.48 1050.25 318.558C1050.39 318.631 1050.57 318.667 1050.76 318.667C1051.06 318.667 1051.32 318.608 1051.53 318.489C1051.75 318.371 1051.92 318.225 1052.04 318.052C1052.16 317.879 1052.23 317.715 1052.23 317.56L1052.75 318.394C1052.68 318.58 1052.58 318.774 1052.45 318.975C1052.33 319.175 1052.17 319.364 1051.98 319.542C1051.79 319.715 1051.56 319.859 1051.29 319.973C1051.02 320.082 1050.7 320.137 1050.33 320.137C1049.86 320.137 1049.44 320.043 1049.05 319.856C1048.67 319.665 1048.37 319.403 1048.15 319.07C1047.93 318.733 1047.82 318.35 1047.82 317.922C1047.82 317.535 1047.9 317.19 1048.04 316.89C1048.19 316.589 1048.4 316.336 1048.68 316.131C1048.97 315.921 1049.33 315.764 1049.76 315.659C1050.19 315.55 1050.68 315.495 1051.25 315.495H1052.39ZM1059.25 312.604V313.998H1054.95V312.604H1059.25ZM1056.01 310.778H1057.98V317.771C1057.98 317.986 1058.01 318.15 1058.06 318.264C1058.12 318.378 1058.21 318.457 1058.32 318.503C1058.44 318.544 1058.58 318.564 1058.75 318.564C1058.88 318.564 1058.99 318.56 1059.08 318.551C1059.18 318.537 1059.27 318.523 1059.33 318.51L1059.34 319.959C1059.17 320.014 1058.99 320.057 1058.79 320.089C1058.6 320.121 1058.38 320.137 1058.14 320.137C1057.71 320.137 1057.33 320.066 1057.01 319.925C1056.69 319.779 1056.44 319.547 1056.27 319.228C1056.1 318.909 1056.01 318.489 1056.01 317.97V310.778ZM1064.75 318.229V312.604H1066.72V320H1064.86L1064.75 318.229ZM1064.97 316.712L1065.55 316.698C1065.55 317.19 1065.49 317.648 1065.38 318.072C1065.26 318.492 1065.09 318.856 1064.86 319.166C1064.64 319.471 1064.35 319.711 1064 319.884C1063.66 320.052 1063.25 320.137 1062.78 320.137C1062.42 320.137 1062.09 320.087 1061.78 319.986C1061.48 319.882 1061.22 319.72 1061 319.501C1060.79 319.278 1060.62 318.993 1060.5 318.646C1060.38 318.296 1060.32 317.874 1060.32 317.382V312.604H1062.29V317.396C1062.29 317.614 1062.31 317.799 1062.36 317.949C1062.42 318.1 1062.49 318.223 1062.59 318.318C1062.68 318.414 1062.8 318.482 1062.92 318.523C1063.06 318.564 1063.2 318.585 1063.36 318.585C1063.77 318.585 1064.08 318.503 1064.32 318.339C1064.55 318.175 1064.72 317.951 1064.82 317.669C1064.92 317.382 1064.97 317.063 1064.97 316.712ZM1072.22 317.956C1072.22 317.815 1072.18 317.687 1072.1 317.573C1072.01 317.459 1071.86 317.354 1071.64 317.259C1071.42 317.159 1071.1 317.067 1070.69 316.985C1070.31 316.903 1069.97 316.801 1069.64 316.678C1069.32 316.55 1069.05 316.397 1068.81 316.22C1068.58 316.042 1068.39 315.832 1068.26 315.591C1068.13 315.345 1068.06 315.064 1068.06 314.75C1068.06 314.44 1068.13 314.148 1068.26 313.875C1068.4 313.602 1068.59 313.36 1068.84 313.15C1069.1 312.936 1069.41 312.77 1069.77 312.651C1070.14 312.528 1070.56 312.467 1071.02 312.467C1071.66 312.467 1072.21 312.569 1072.67 312.774C1073.14 312.979 1073.49 313.262 1073.74 313.622C1073.99 313.978 1074.11 314.383 1074.11 314.839H1072.14C1072.14 314.647 1072.1 314.477 1072.02 314.326C1071.94 314.171 1071.82 314.05 1071.65 313.964C1071.49 313.873 1071.27 313.827 1071.01 313.827C1070.79 313.827 1070.6 313.866 1070.44 313.943C1070.28 314.016 1070.16 314.117 1070.07 314.244C1069.99 314.367 1069.95 314.504 1069.95 314.654C1069.95 314.768 1069.97 314.871 1070.02 314.962C1070.07 315.049 1070.15 315.128 1070.26 315.201C1070.37 315.274 1070.51 315.342 1070.68 315.406C1070.86 315.465 1071.08 315.52 1071.34 315.57C1071.87 315.68 1072.35 315.823 1072.77 316.001C1073.19 316.174 1073.52 316.411 1073.76 316.712C1074.01 317.008 1074.13 317.398 1074.13 317.881C1074.13 318.209 1074.06 318.51 1073.92 318.783C1073.77 319.057 1073.56 319.296 1073.29 319.501C1073.01 319.701 1072.68 319.859 1072.3 319.973C1071.92 320.082 1071.5 320.137 1071.02 320.137C1070.34 320.137 1069.75 320.014 1069.27 319.768C1068.8 319.521 1068.44 319.209 1068.19 318.831C1067.95 318.448 1067.83 318.056 1067.83 317.655H1069.7C1069.71 317.924 1069.77 318.141 1069.9 318.305C1070.03 318.469 1070.2 318.587 1070.4 318.66C1070.61 318.733 1070.83 318.77 1071.06 318.77C1071.32 318.77 1071.53 318.735 1071.7 318.667C1071.87 318.594 1072 318.498 1072.08 318.38C1072.17 318.257 1072.22 318.116 1072.22 317.956Z" fill="#E1E1E6"/>
<path d="M256 344H1188V744C1188 748.418 1184.42 752 1180 752H264C259.582 752 256 748.418 256 744V344Z" fill="#29292E"/>
<path d="M259.129 227.938H262.105L266.488 240.465L270.871 227.938H273.848L267.684 245H265.293L259.129 227.938ZM257.523 227.938H260.488L261.027 240.148V245H257.523V227.938ZM272.488 227.938H275.465V245H271.949V240.148L272.488 227.938ZM284.172 245.234C283.188 245.234 282.305 245.078 281.523 244.766C280.742 244.445 280.078 244.004 279.531 243.441C278.992 242.879 278.578 242.227 278.289 241.484C278 240.734 277.855 239.938 277.855 239.094V238.625C277.855 237.664 277.992 236.785 278.266 235.988C278.539 235.191 278.93 234.5 279.438 233.914C279.953 233.328 280.578 232.879 281.312 232.566C282.047 232.246 282.875 232.086 283.797 232.086C284.695 232.086 285.492 232.234 286.188 232.531C286.883 232.828 287.465 233.25 287.934 233.797C288.41 234.344 288.77 235 289.012 235.766C289.254 236.523 289.375 237.367 289.375 238.297V239.703H279.297V237.453H286.059V237.195C286.059 236.727 285.973 236.309 285.801 235.941C285.637 235.566 285.387 235.27 285.051 235.051C284.715 234.832 284.285 234.723 283.762 234.723C283.316 234.723 282.934 234.82 282.613 235.016C282.293 235.211 282.031 235.484 281.828 235.836C281.633 236.188 281.484 236.602 281.383 237.078C281.289 237.547 281.242 238.062 281.242 238.625V239.094C281.242 239.602 281.312 240.07 281.453 240.5C281.602 240.93 281.809 241.301 282.074 241.613C282.348 241.926 282.676 242.168 283.059 242.34C283.449 242.512 283.891 242.598 284.383 242.598C284.992 242.598 285.559 242.48 286.082 242.246C286.613 242.004 287.07 241.641 287.453 241.156L289.094 242.938C288.828 243.32 288.465 243.688 288.004 244.039C287.551 244.391 287.004 244.68 286.363 244.906C285.723 245.125 284.992 245.234 284.172 245.234ZM298.797 241.965V232.32H302.172V245H298.996L298.797 241.965ZM299.172 239.363L300.168 239.34C300.168 240.184 300.07 240.969 299.875 241.695C299.68 242.414 299.387 243.039 298.996 243.57C298.605 244.094 298.113 244.504 297.52 244.801C296.926 245.09 296.227 245.234 295.422 245.234C294.805 245.234 294.234 245.148 293.711 244.977C293.195 244.797 292.75 244.52 292.375 244.145C292.008 243.762 291.719 243.273 291.508 242.68C291.305 242.078 291.203 241.355 291.203 240.512V232.32H294.578V240.535C294.578 240.91 294.621 241.227 294.707 241.484C294.801 241.742 294.93 241.953 295.094 242.117C295.258 242.281 295.449 242.398 295.668 242.469C295.895 242.539 296.145 242.574 296.418 242.574C297.113 242.574 297.66 242.434 298.059 242.152C298.465 241.871 298.75 241.488 298.914 241.004C299.086 240.512 299.172 239.965 299.172 239.363ZM314.02 227V245H310.645V227H314.02ZM313.539 238.215H312.613C312.621 237.332 312.738 236.52 312.965 235.777C313.191 235.027 313.516 234.379 313.938 233.832C314.359 233.277 314.863 232.848 315.449 232.543C316.043 232.238 316.699 232.086 317.418 232.086C318.043 232.086 318.609 232.176 319.117 232.355C319.633 232.527 320.074 232.809 320.441 233.199C320.816 233.582 321.105 234.086 321.309 234.711C321.512 235.336 321.613 236.094 321.613 236.984V245H318.215V236.961C318.215 236.398 318.133 235.957 317.969 235.637C317.812 235.309 317.582 235.078 317.277 234.945C316.98 234.805 316.613 234.734 316.176 234.734C315.691 234.734 315.277 234.824 314.934 235.004C314.598 235.184 314.328 235.434 314.125 235.754C313.922 236.066 313.773 236.434 313.68 236.855C313.586 237.277 313.539 237.73 313.539 238.215ZM327.742 232.32V245H324.355V232.32H327.742ZM324.145 229.016C324.145 228.523 324.316 228.117 324.66 227.797C325.004 227.477 325.465 227.316 326.043 227.316C326.613 227.316 327.07 227.477 327.414 227.797C327.766 228.117 327.941 228.523 327.941 229.016C327.941 229.508 327.766 229.914 327.414 230.234C327.07 230.555 326.613 230.715 326.043 230.715C325.465 230.715 325.004 230.555 324.66 230.234C324.316 229.914 324.145 229.508 324.145 229.016ZM337.387 241.496C337.387 241.254 337.316 241.035 337.176 240.84C337.035 240.645 336.773 240.465 336.391 240.301C336.016 240.129 335.473 239.973 334.762 239.832C334.121 239.691 333.523 239.516 332.969 239.305C332.422 239.086 331.945 238.824 331.539 238.52C331.141 238.215 330.828 237.855 330.602 237.441C330.375 237.02 330.262 236.539 330.262 236C330.262 235.469 330.375 234.969 330.602 234.5C330.836 234.031 331.168 233.617 331.598 233.258C332.035 232.891 332.566 232.605 333.191 232.402C333.824 232.191 334.535 232.086 335.324 232.086C336.426 232.086 337.371 232.262 338.16 232.613C338.957 232.965 339.566 233.449 339.988 234.066C340.418 234.676 340.633 235.371 340.633 236.152H337.258C337.258 235.824 337.188 235.531 337.047 235.273C336.914 235.008 336.703 234.801 336.414 234.652C336.133 234.496 335.766 234.418 335.312 234.418C334.938 234.418 334.613 234.484 334.34 234.617C334.066 234.742 333.855 234.914 333.707 235.133C333.566 235.344 333.496 235.578 333.496 235.836C333.496 236.031 333.535 236.207 333.613 236.363C333.699 236.512 333.836 236.648 334.023 236.773C334.211 236.898 334.453 237.016 334.75 237.125C335.055 237.227 335.43 237.32 335.875 237.406C336.789 237.594 337.605 237.84 338.324 238.145C339.043 238.441 339.613 238.848 340.035 239.363C340.457 239.871 340.668 240.539 340.668 241.367C340.668 241.93 340.543 242.445 340.293 242.914C340.043 243.383 339.684 243.793 339.215 244.145C338.746 244.488 338.184 244.758 337.527 244.953C336.879 245.141 336.148 245.234 335.336 245.234C334.156 245.234 333.156 245.023 332.336 244.602C331.523 244.18 330.906 243.645 330.484 242.996C330.07 242.34 329.863 241.668 329.863 240.98H333.062C333.078 241.441 333.195 241.812 333.414 242.094C333.641 242.375 333.926 242.578 334.27 242.703C334.621 242.828 335 242.891 335.406 242.891C335.844 242.891 336.207 242.832 336.496 242.715C336.785 242.59 337.004 242.426 337.152 242.223C337.309 242.012 337.387 241.77 337.387 241.496ZM349.07 232.32V234.711H341.688V232.32H349.07ZM343.516 229.191H346.891V241.18C346.891 241.547 346.938 241.828 347.031 242.023C347.133 242.219 347.281 242.355 347.477 242.434C347.672 242.504 347.918 242.539 348.215 242.539C348.426 242.539 348.613 242.531 348.777 242.516C348.949 242.492 349.094 242.469 349.211 242.445L349.223 244.93C348.934 245.023 348.621 245.098 348.285 245.152C347.949 245.207 347.578 245.234 347.172 245.234C346.43 245.234 345.781 245.113 345.227 244.871C344.68 244.621 344.258 244.223 343.961 243.676C343.664 243.129 343.516 242.41 343.516 241.52V229.191ZM350.148 238.789V238.543C350.148 237.613 350.281 236.758 350.547 235.977C350.812 235.188 351.199 234.504 351.707 233.926C352.215 233.348 352.84 232.898 353.582 232.578C354.324 232.25 355.176 232.086 356.137 232.086C357.098 232.086 357.953 232.25 358.703 232.578C359.453 232.898 360.082 233.348 360.59 233.926C361.105 234.504 361.496 235.188 361.762 235.977C362.027 236.758 362.16 237.613 362.16 238.543V238.789C362.16 239.711 362.027 240.566 361.762 241.355C361.496 242.137 361.105 242.82 360.59 243.406C360.082 243.984 359.457 244.434 358.715 244.754C357.973 245.074 357.121 245.234 356.16 245.234C355.199 245.234 354.344 245.074 353.594 244.754C352.852 244.434 352.223 243.984 351.707 243.406C351.199 242.82 350.812 242.137 350.547 241.355C350.281 240.566 350.148 239.711 350.148 238.789ZM353.523 238.543V238.789C353.523 239.32 353.57 239.816 353.664 240.277C353.758 240.738 353.906 241.145 354.109 241.496C354.32 241.84 354.594 242.109 354.93 242.305C355.266 242.5 355.676 242.598 356.16 242.598C356.629 242.598 357.031 242.5 357.367 242.305C357.703 242.109 357.973 241.84 358.176 241.496C358.379 241.145 358.527 240.738 358.621 240.277C358.723 239.816 358.773 239.32 358.773 238.789V238.543C358.773 238.027 358.723 237.543 358.621 237.09C358.527 236.629 358.375 236.223 358.164 235.871C357.961 235.512 357.691 235.23 357.355 235.027C357.02 234.824 356.613 234.723 356.137 234.723C355.66 234.723 355.254 234.824 354.918 235.027C354.59 235.23 354.32 235.512 354.109 235.871C353.906 236.223 353.758 236.629 353.664 237.09C353.57 237.543 353.523 238.027 353.523 238.543ZM354.52 230.609L356.816 227H360.484L357.262 230.609H354.52ZM367.609 235.086V245H364.234V232.32H367.41L367.609 235.086ZM371.43 232.238L371.371 235.367C371.207 235.344 371.008 235.324 370.773 235.309C370.547 235.285 370.34 235.273 370.152 235.273C369.676 235.273 369.262 235.336 368.91 235.461C368.566 235.578 368.277 235.754 368.043 235.988C367.816 236.223 367.645 236.508 367.527 236.844C367.418 237.18 367.355 237.562 367.34 237.992L366.66 237.781C366.66 236.961 366.742 236.207 366.906 235.52C367.07 234.824 367.309 234.219 367.621 233.703C367.941 233.188 368.332 232.789 368.793 232.508C369.254 232.227 369.781 232.086 370.375 232.086C370.562 232.086 370.754 232.102 370.949 232.133C371.145 232.156 371.305 232.191 371.43 232.238ZM376.586 232.32V245H373.199V232.32H376.586ZM372.988 229.016C372.988 228.523 373.16 228.117 373.504 227.797C373.848 227.477 374.309 227.316 374.887 227.316C375.457 227.316 375.914 227.477 376.258 227.797C376.609 228.117 376.785 228.523 376.785 229.016C376.785 229.508 376.609 229.914 376.258 230.234C375.914 230.555 375.457 230.715 374.887 230.715C374.309 230.715 373.848 230.555 373.504 230.234C373.16 229.914 372.988 229.508 372.988 229.016ZM384.613 242.598C385.027 242.598 385.395 242.52 385.715 242.363C386.035 242.199 386.285 241.973 386.465 241.684C386.652 241.387 386.75 241.039 386.758 240.641H389.934C389.926 241.531 389.688 242.324 389.219 243.02C388.75 243.707 388.121 244.25 387.332 244.648C386.543 245.039 385.66 245.234 384.684 245.234C383.699 245.234 382.84 245.07 382.105 244.742C381.379 244.414 380.773 243.961 380.289 243.383C379.805 242.797 379.441 242.117 379.199 241.344C378.957 240.562 378.836 239.727 378.836 238.836V238.496C378.836 237.598 378.957 236.762 379.199 235.988C379.441 235.207 379.805 234.527 380.289 233.949C380.773 233.363 381.379 232.906 382.105 232.578C382.832 232.25 383.684 232.086 384.66 232.086C385.699 232.086 386.609 232.285 387.391 232.684C388.18 233.082 388.797 233.652 389.242 234.395C389.695 235.129 389.926 236 389.934 237.008H386.758C386.75 236.586 386.66 236.203 386.488 235.859C386.324 235.516 386.082 235.242 385.762 235.039C385.449 234.828 385.062 234.723 384.602 234.723C384.109 234.723 383.707 234.828 383.395 235.039C383.082 235.242 382.84 235.523 382.668 235.883C382.496 236.234 382.375 236.637 382.305 237.09C382.242 237.535 382.211 238.004 382.211 238.496V238.836C382.211 239.328 382.242 239.801 382.305 240.254C382.367 240.707 382.484 241.109 382.656 241.461C382.836 241.812 383.082 242.09 383.395 242.293C383.707 242.496 384.113 242.598 384.613 242.598ZM391.352 238.789V238.543C391.352 237.613 391.484 236.758 391.75 235.977C392.016 235.188 392.402 234.504 392.91 233.926C393.418 233.348 394.043 232.898 394.785 232.578C395.527 232.25 396.379 232.086 397.34 232.086C398.301 232.086 399.156 232.25 399.906 232.578C400.656 232.898 401.285 233.348 401.793 233.926C402.309 234.504 402.699 235.188 402.965 235.977C403.23 236.758 403.363 237.613 403.363 238.543V238.789C403.363 239.711 403.23 240.566 402.965 241.355C402.699 242.137 402.309 242.82 401.793 243.406C401.285 243.984 400.66 244.434 399.918 244.754C399.176 245.074 398.324 245.234 397.363 245.234C396.402 245.234 395.547 245.074 394.797 244.754C394.055 244.434 393.426 243.984 392.91 243.406C392.402 242.82 392.016 242.137 391.75 241.355C391.484 240.566 391.352 239.711 391.352 238.789ZM394.727 238.543V238.789C394.727 239.32 394.773 239.816 394.867 240.277C394.961 240.738 395.109 241.145 395.312 241.496C395.523 241.84 395.797 242.109 396.133 242.305C396.469 242.5 396.879 242.598 397.363 242.598C397.832 242.598 398.234 242.5 398.57 242.305C398.906 242.109 399.176 241.84 399.379 241.496C399.582 241.145 399.73 240.738 399.824 240.277C399.926 239.816 399.977 239.32 399.977 238.789V238.543C399.977 238.027 399.926 237.543 399.824 237.09C399.73 236.629 399.578 236.223 399.367 235.871C399.164 235.512 398.895 235.23 398.559 235.027C398.223 234.824 397.816 234.723 397.34 234.723C396.863 234.723 396.457 234.824 396.121 235.027C395.793 235.23 395.523 235.512 395.312 235.871C395.109 236.223 394.961 236.629 394.867 237.09C394.773 237.543 394.727 238.027 394.727 238.543Z" fill="#E1E1E6"/>
</svg>
