<svg width="1440" height="904" viewBox="0 0 1440 904" fill="none" xmlns="http://www.w3.org/2000/svg">
<rect width="1440" height="904" fill="#121214"/>
<rect x="159" y="80" width="1120" height="740" rx="8" fill="#202024"/>
<path opacity="0.5" d="M238.99 128.27L229.203 164.833C229.154 164.999 228.955 165.049 228.839 164.933L222.286 158.377L227.196 140.054C227.246 139.888 227.097 139.739 226.931 139.789L208.618 144.701L202.099 138.179C201.983 138.062 202.033 137.863 202.199 137.813L238.725 128.005C238.891 127.971 239.04 128.121 238.99 128.27Z" fill="#00B37E"/>
<path opacity="0.5" d="M222.286 158.377L219.765 167.837C219.715 168.003 219.516 168.053 219.4 167.937L199.063 147.605C198.947 147.489 198.997 147.29 199.163 147.24L208.618 144.701L222.286 158.377Z" fill="#00B37E"/>
<path d="M227.196 140.054L222.286 158.377L208.617 144.701L226.93 139.788C227.096 139.738 227.245 139.888 227.196 140.054Z" fill="#00B37E"/>
<path fill-rule="evenodd" clip-rule="evenodd" d="M1221 132C1221.45 131.998 1221.9 132.092 1222.31 132.275C1222.73 132.459 1223.11 132.729 1223.43 133.071C1223.75 133.412 1224 133.817 1224.17 134.263C1224.34 134.709 1224.43 135.186 1224.43 135.668L1224.43 135.67L1223.57 135.667H1224.43V135.668V148.5C1224.43 149.006 1224.04 149.416 1223.57 149.416C1223.1 149.416 1222.71 149.006 1222.71 148.5V135.667L1222.71 135.663C1222.72 135.422 1222.67 135.184 1222.59 134.961C1222.5 134.739 1222.37 134.537 1222.22 134.367C1222.06 134.197 1221.87 134.062 1221.66 133.971C1221.45 133.879 1221.23 133.832 1221 133.833L1221 133.833H1206.43C1205.96 133.833 1205.57 133.423 1205.57 132.917C1205.57 132.41 1205.96 132 1206.43 132H1221ZM1221 132L1221 132L1221 132.917V132H1221Z" fill="#E1E1E6"/>
<path fill-rule="evenodd" clip-rule="evenodd" d="M1212.43 140.253C1212.43 139.746 1212.81 139.336 1213.28 139.336H1220.14C1220.62 139.336 1221 139.746 1221 140.253C1221 140.759 1220.62 141.169 1220.14 141.169H1213.28C1212.81 141.169 1212.43 140.759 1212.43 140.253Z" fill="#E1E1E6"/>
<path fill-rule="evenodd" clip-rule="evenodd" d="M1212.43 143.921C1212.43 143.414 1212.81 143.004 1213.28 143.004H1220.14C1220.62 143.004 1221 143.414 1221 143.921C1221 144.427 1220.62 144.837 1220.14 144.837H1213.28C1212.81 144.837 1212.43 144.427 1212.43 143.921Z" fill="#E1E1E6"/>
<path fill-rule="evenodd" clip-rule="evenodd" d="M1206.63 133.846C1206.36 133.811 1206.08 133.848 1205.82 133.954C1205.56 134.06 1205.33 134.232 1205.14 134.455C1204.96 134.678 1204.83 134.945 1204.76 135.234C1204.7 135.522 1204.7 135.824 1204.77 136.112C1204.83 136.4 1204.96 136.666 1205.15 136.888C1205.47 137.266 1205.43 137.845 1205.08 138.182C1204.73 138.519 1204.19 138.487 1203.87 138.109C1203.5 137.666 1203.24 137.133 1203.1 136.557C1202.97 135.981 1202.97 135.378 1203.1 134.801C1203.23 134.223 1203.49 133.689 1203.86 133.243C1204.22 132.797 1204.69 132.453 1205.21 132.241C1205.72 132.03 1206.28 131.956 1206.84 132.026C1207.39 132.097 1207.91 132.31 1208.37 132.646C1208.83 132.983 1209.2 133.434 1209.46 133.96C1209.72 134.486 1209.86 135.071 1209.86 135.665V150.331C1209.86 150.628 1209.92 150.921 1210.05 151.184C1210.18 151.447 1210.37 151.672 1210.6 151.84C1210.83 152.009 1211.09 152.115 1211.37 152.15C1211.64 152.186 1211.92 152.149 1212.18 152.043C1212.44 151.937 1212.67 151.765 1212.86 151.542C1213.04 151.319 1213.17 151.052 1213.24 150.763C1213.3 150.475 1213.3 150.173 1213.23 149.885C1213.17 149.597 1213.03 149.33 1212.85 149.109C1212.62 148.839 1212.57 148.454 1212.71 148.124C1212.84 147.794 1213.15 147.582 1213.49 147.582H1225.49C1225.73 147.582 1225.96 147.693 1226.13 147.887C1226.57 148.415 1226.86 149.068 1226.96 149.767C1227.06 150.467 1226.97 151.183 1226.7 151.829C1226.43 152.475 1225.99 153.024 1225.44 153.409C1224.88 153.794 1224.23 153.998 1223.57 153.998H1211.57C1211.55 153.998 1211.53 153.997 1211.51 153.996C1211.4 153.994 1211.28 153.986 1211.16 153.971C1210.61 153.9 1210.09 153.687 1209.63 153.351C1209.17 153.014 1208.8 152.563 1208.54 152.037C1208.28 151.511 1208.14 150.926 1208.14 150.332V135.666C1208.14 135.369 1208.07 135.076 1207.95 134.813C1207.82 134.55 1207.63 134.325 1207.4 134.157C1207.17 133.988 1206.91 133.882 1206.63 133.846ZM1214.54 152.165H1223.57C1223.9 152.165 1224.23 152.063 1224.5 151.87C1224.78 151.678 1225 151.403 1225.14 151.08C1225.27 150.757 1225.32 150.399 1225.27 150.049C1225.23 149.825 1225.16 149.61 1225.06 149.415H1214.89C1214.89 149.423 1214.89 149.432 1214.9 149.44C1215.03 150.016 1215.03 150.619 1214.9 151.196C1214.82 151.537 1214.7 151.863 1214.54 152.165Z" fill="#E1E1E6"/>
<path fill-rule="evenodd" clip-rule="evenodd" d="M1154.7 130C1154.7 129.448 1155.14 129 1155.69 129H1161.15C1161.69 129 1162.14 129.448 1162.14 130C1162.14 130.552 1161.69 131 1161.15 131H1155.69C1155.14 131 1154.7 130.552 1154.7 130ZM1158.42 134.692C1153.43 134.692 1149.39 138.791 1149.39 143.846C1149.39 148.902 1153.43 153 1158.42 153C1163.4 153 1167.45 148.902 1167.45 143.846C1167.45 138.791 1163.4 134.692 1158.42 134.692ZM1147.42 143.846C1147.42 137.686 1152.34 132.692 1158.42 132.692C1164.49 132.692 1169.42 137.686 1169.42 143.846C1169.42 150.006 1164.49 155 1158.42 155C1152.34 155 1147.42 150.006 1147.42 143.846ZM1163.62 138.569C1164.01 138.96 1164.01 139.593 1163.62 139.984L1159.12 144.553C1158.73 144.943 1158.11 144.943 1157.72 144.553C1157.34 144.162 1157.34 143.529 1157.72 143.139L1162.23 138.569C1162.61 138.179 1163.24 138.179 1163.62 138.569Z" fill="#00875F"/>
<rect x="402" y="343.98" width="128" height="198.02" rx="8" fill="#29292E"/>
<path d="M503.078 462.699V435.511C503.078 428.168 502.219 421.709 500.5 416.136C498.781 410.511 496.333 405.798 493.156 401.996C489.927 398.246 486.021 395.407 481.438 393.48C476.854 391.553 471.698 390.59 465.969 390.59C460.292 390.59 455.161 391.553 450.578 393.48C446.047 395.407 442.193 398.246 439.016 401.996C435.786 405.798 433.312 410.511 431.594 416.136C429.875 421.709 429.016 428.168 429.016 435.511V462.699C429.016 470.043 429.875 476.527 431.594 482.152C433.365 487.725 435.865 492.386 439.094 496.136C442.271 499.939 446.151 502.803 450.734 504.73C455.318 506.657 460.448 507.621 466.125 507.621C471.854 507.621 477.01 506.657 481.594 504.73C486.177 502.803 490.057 499.939 493.234 496.136C496.411 492.386 498.833 487.725 500.5 482.152C502.219 476.527 503.078 470.043 503.078 462.699ZM450.891 453.324C450.891 451.709 450.891 450.485 450.891 449.652C450.891 448.819 450.891 447.152 450.891 444.652V432.074C450.891 427.855 451.203 424.209 451.828 421.136C452.505 418.064 453.521 415.564 454.875 413.636C456.125 411.814 457.661 410.459 459.484 409.574C461.359 408.636 463.521 408.168 465.969 408.168C468.156 408.168 470.109 408.532 471.828 409.261C473.599 409.939 475.083 411.006 476.281 412.465C477.844 414.288 479.016 416.735 479.797 419.808C480.63 422.829 481.099 426.475 481.203 430.746L450.891 453.324ZM481.203 465.98C481.203 470.199 480.865 473.871 480.188 476.996C479.562 480.069 478.599 482.595 477.297 484.574C476.047 486.449 474.484 487.855 472.609 488.793C470.734 489.678 468.573 490.121 466.125 490.121C463.469 490.121 461.177 489.6 459.25 488.558C457.323 487.517 455.734 485.928 454.484 483.793C453.391 482.022 452.531 479.808 451.906 477.152C451.333 474.496 450.995 471.449 450.891 468.011L481.203 445.511C481.203 447.022 481.203 448.194 481.203 449.027C481.203 449.808 481.203 451.058 481.203 452.777V465.98Z" fill="#E1E1E6"/>
<rect x="546" y="343.98" width="128" height="198.02" rx="8" fill="#29292E"/>
<path d="M650.392 462.951V435.763C650.392 428.419 649.533 421.961 647.814 416.388C646.096 410.763 643.648 406.05 640.471 402.247C637.241 398.497 633.335 395.659 628.752 393.732C624.168 391.805 619.012 390.841 613.283 390.841C607.606 390.841 602.476 391.805 597.892 393.732C593.361 395.659 589.507 398.497 586.33 402.247C583.101 406.05 580.627 410.763 578.908 416.388C577.189 421.961 576.33 428.419 576.33 435.763V462.951C576.33 470.294 577.189 476.779 578.908 482.404C580.679 487.977 583.179 492.638 586.408 496.388C589.585 500.19 593.465 503.055 598.049 504.982C602.632 506.909 607.762 507.872 613.439 507.872C619.168 507.872 624.325 506.909 628.908 504.982C633.491 503.055 637.372 500.19 640.549 496.388C643.726 492.638 646.148 487.977 647.814 482.404C649.533 476.779 650.392 470.294 650.392 462.951ZM598.205 453.576C598.205 451.961 598.205 450.737 598.205 449.904C598.205 449.07 598.205 447.404 598.205 444.904V432.326C598.205 428.107 598.517 424.461 599.142 421.388C599.82 418.315 600.835 415.815 602.189 413.888C603.439 412.065 604.976 410.711 606.799 409.826C608.674 408.888 610.835 408.419 613.283 408.419C615.471 408.419 617.424 408.784 619.142 409.513C620.913 410.19 622.398 411.258 623.596 412.716C625.158 414.539 626.33 416.987 627.111 420.06C627.945 423.081 628.413 426.727 628.517 430.997L598.205 453.576ZM628.517 466.232C628.517 470.451 628.179 474.122 627.502 477.247C626.877 480.32 625.913 482.846 624.611 484.826C623.361 486.701 621.799 488.107 619.924 489.044C618.049 489.93 615.887 490.372 613.439 490.372C610.783 490.372 608.491 489.852 606.564 488.81C604.637 487.768 603.049 486.18 601.799 484.044C600.705 482.273 599.846 480.06 599.221 477.404C598.648 474.747 598.309 471.701 598.205 468.263L628.517 445.763C628.517 447.273 628.517 448.445 628.517 449.279C628.517 450.06 628.517 451.31 628.517 453.029V466.232Z" fill="#E1E1E6"/>
<path d="M711.516 490.422C711.516 494.432 712.87 497.792 715.578 500.5C718.286 503.208 721.958 504.562 726.594 504.562C731.177 504.562 734.823 503.234 737.531 500.578C740.292 497.87 741.672 494.484 741.672 490.422C741.672 486.359 740.318 482.948 737.609 480.188C734.953 477.427 731.281 476.047 726.594 476.047C721.854 476.047 718.156 477.453 715.5 480.266C712.844 483.026 711.516 486.411 711.516 490.422ZM711.516 425.891C711.516 429.901 712.87 433.26 715.578 435.969C718.286 438.677 721.958 440.031 726.594 440.031C731.177 440.031 734.823 438.703 737.531 436.047C740.292 433.339 741.672 429.953 741.672 425.891C741.672 421.828 740.318 418.417 737.609 415.656C734.953 412.896 731.281 411.516 726.594 411.516C721.854 411.516 718.156 412.922 715.5 415.734C712.844 418.495 711.516 421.88 711.516 425.891Z" fill="#00875F"/>
<rect x="778" y="343.98" width="128" height="198.02" rx="8" fill="#29292E"/>
<path d="M882.392 462.951V435.763C882.392 428.419 881.533 421.961 879.814 416.388C878.096 410.763 875.648 406.05 872.471 402.248C869.241 398.498 865.335 395.659 860.752 393.732C856.168 391.805 851.012 390.841 845.283 390.841C839.606 390.841 834.476 391.805 829.892 393.732C825.361 395.659 821.507 398.498 818.33 402.248C815.101 406.05 812.627 410.763 810.908 416.388C809.189 421.961 808.33 428.419 808.33 435.763V462.951C808.33 470.294 809.189 476.779 810.908 482.404C812.679 487.977 815.179 492.638 818.408 496.388C821.585 500.19 825.465 503.055 830.049 504.982C834.632 506.909 839.762 507.873 845.439 507.873C851.168 507.873 856.325 506.909 860.908 504.982C865.491 503.055 869.372 500.19 872.549 496.388C875.726 492.638 878.148 487.977 879.814 482.404C881.533 476.779 882.392 470.294 882.392 462.951ZM830.205 453.576C830.205 451.961 830.205 450.737 830.205 449.904C830.205 449.07 830.205 447.404 830.205 444.904V432.326C830.205 428.107 830.517 424.461 831.142 421.388C831.82 418.315 832.835 415.815 834.189 413.888C835.439 412.065 836.976 410.711 838.799 409.826C840.674 408.888 842.835 408.419 845.283 408.419C847.471 408.419 849.424 408.784 851.142 409.513C852.913 410.19 854.398 411.258 855.596 412.716C857.158 414.539 858.33 416.987 859.111 420.06C859.945 423.081 860.413 426.727 860.517 430.998L830.205 453.576ZM860.517 466.232C860.517 470.451 860.179 474.123 859.502 477.248C858.877 480.32 857.913 482.847 856.611 484.826C855.361 486.701 853.799 488.107 851.924 489.044C850.049 489.93 847.887 490.373 845.439 490.373C842.783 490.373 840.491 489.852 838.564 488.81C836.637 487.768 835.049 486.18 833.799 484.044C832.705 482.274 831.846 480.06 831.221 477.404C830.648 474.748 830.309 471.701 830.205 468.263L860.517 445.763C860.517 447.274 860.517 448.445 860.517 449.279C860.517 450.06 860.517 451.31 860.517 453.029V466.232Z" fill="#E1E1E6"/>
<rect x="922" y="343.98" width="128" height="198.02" rx="8" fill="#29292E"/>
<path d="M1026.39 462.951V435.763C1026.39 428.419 1025.53 421.961 1023.81 416.388C1022.1 410.763 1019.65 406.05 1016.47 402.248C1013.24 398.498 1009.34 395.659 1004.75 393.732C1000.17 391.805 995.012 390.841 989.283 390.841C983.606 390.841 978.476 391.805 973.892 393.732C969.361 395.659 965.507 398.498 962.33 402.248C959.101 406.05 956.627 410.763 954.908 416.388C953.189 421.961 952.33 428.419 952.33 435.763V462.951C952.33 470.294 953.189 476.779 954.908 482.404C956.679 487.977 959.179 492.638 962.408 496.388C965.585 500.19 969.465 503.055 974.049 504.982C978.632 506.909 983.762 507.873 989.439 507.873C995.168 507.873 1000.32 506.909 1004.91 504.982C1009.49 503.055 1013.37 500.19 1016.55 496.388C1019.73 492.638 1022.15 487.977 1023.81 482.404C1025.53 476.779 1026.39 470.294 1026.39 462.951ZM974.205 453.576C974.205 451.961 974.205 450.737 974.205 449.904C974.205 449.07 974.205 447.404 974.205 444.904V432.326C974.205 428.107 974.517 424.461 975.142 421.388C975.82 418.315 976.835 415.815 978.189 413.888C979.439 412.065 980.976 410.711 982.799 409.826C984.674 408.888 986.835 408.419 989.283 408.419C991.471 408.419 993.424 408.784 995.142 409.513C996.913 410.19 998.398 411.258 999.596 412.716C1001.16 414.539 1002.33 416.987 1003.11 420.06C1003.94 423.081 1004.41 426.727 1004.52 430.998L974.205 453.576ZM1004.52 466.232C1004.52 470.451 1004.18 474.123 1003.5 477.248C1002.88 480.32 1001.91 482.847 1000.61 484.826C999.361 486.701 997.799 488.107 995.924 489.044C994.049 489.93 991.887 490.373 989.439 490.373C986.783 490.373 984.491 489.852 982.564 488.81C980.637 487.768 979.049 486.18 977.799 484.044C976.705 482.274 975.846 480.06 975.221 477.404C974.648 474.748 974.309 471.701 974.205 468.263L1004.52 445.763C1004.52 447.274 1004.52 448.445 1004.52 449.279C1004.52 450.06 1004.52 451.31 1004.52 453.029V466.232Z" fill="#E1E1E6"/>
<path d="M407.757 266.328L410.771 256.203H413.707L409.251 269H407.317L407.757 266.328ZM404.979 256.203L407.985 266.328L408.442 269H406.491L402.062 256.203H404.979ZM413.936 264.342V264.157C413.936 263.46 414.035 262.818 414.234 262.232C414.434 261.641 414.724 261.128 415.104 260.694C415.485 260.261 415.954 259.924 416.511 259.684C417.067 259.438 417.706 259.314 418.427 259.314C419.147 259.314 419.789 259.438 420.352 259.684C420.914 259.924 421.386 260.261 421.767 260.694C422.153 261.128 422.446 261.641 422.646 262.232C422.845 262.818 422.944 263.46 422.944 264.157V264.342C422.944 265.033 422.845 265.675 422.646 266.267C422.446 266.853 422.153 267.365 421.767 267.805C421.386 268.238 420.917 268.575 420.36 268.815C419.804 269.056 419.165 269.176 418.444 269.176C417.724 269.176 417.082 269.056 416.52 268.815C415.963 268.575 415.491 268.238 415.104 267.805C414.724 267.365 414.434 266.853 414.234 266.267C414.035 265.675 413.936 265.033 413.936 264.342ZM416.467 264.157V264.342C416.467 264.74 416.502 265.112 416.572 265.458C416.643 265.804 416.754 266.108 416.906 266.372C417.064 266.63 417.27 266.832 417.521 266.979C417.773 267.125 418.081 267.198 418.444 267.198C418.796 267.198 419.098 267.125 419.35 266.979C419.602 266.832 419.804 266.63 419.956 266.372C420.108 266.108 420.22 265.804 420.29 265.458C420.366 265.112 420.404 264.74 420.404 264.342V264.157C420.404 263.771 420.366 263.407 420.29 263.067C420.22 262.722 420.105 262.417 419.947 262.153C419.795 261.884 419.593 261.673 419.341 261.521C419.089 261.368 418.784 261.292 418.427 261.292C418.069 261.292 417.765 261.368 417.513 261.521C417.267 261.673 417.064 261.884 416.906 262.153C416.754 262.417 416.643 262.722 416.572 263.067C416.502 263.407 416.467 263.771 416.467 264.157ZM430.125 266.724V259.49H432.656V269H430.274L430.125 266.724ZM430.406 264.772L431.153 264.755C431.153 265.388 431.08 265.977 430.934 266.521C430.787 267.061 430.567 267.529 430.274 267.928C429.981 268.32 429.612 268.628 429.167 268.851C428.722 269.067 428.197 269.176 427.594 269.176C427.131 269.176 426.703 269.111 426.311 268.982C425.924 268.848 425.59 268.64 425.309 268.358C425.033 268.071 424.816 267.705 424.658 267.26C424.506 266.809 424.43 266.267 424.43 265.634V259.49H426.961V265.651C426.961 265.933 426.993 266.17 427.058 266.363C427.128 266.557 427.225 266.715 427.348 266.838C427.471 266.961 427.614 267.049 427.778 267.102C427.948 267.154 428.136 267.181 428.341 267.181C428.862 267.181 429.272 267.075 429.571 266.864C429.876 266.653 430.09 266.366 430.213 266.003C430.342 265.634 430.406 265.224 430.406 264.772ZM443.73 259.49V261.283H438.193V259.49H443.73ZM439.564 257.144H442.096V266.135C442.096 266.41 442.131 266.621 442.201 266.768C442.277 266.914 442.389 267.017 442.535 267.075C442.682 267.128 442.866 267.154 443.089 267.154C443.247 267.154 443.388 267.148 443.511 267.137C443.64 267.119 443.748 267.102 443.836 267.084L443.845 268.947C443.628 269.018 443.394 269.073 443.142 269.114C442.89 269.155 442.611 269.176 442.307 269.176C441.75 269.176 441.264 269.085 440.848 268.903C440.438 268.716 440.121 268.417 439.898 268.007C439.676 267.597 439.564 267.058 439.564 266.39V257.144ZM447.703 261.564V269H445.172V259.49H447.554L447.703 261.564ZM450.568 259.429L450.524 261.775C450.401 261.758 450.252 261.743 450.076 261.731C449.906 261.714 449.751 261.705 449.61 261.705C449.253 261.705 448.942 261.752 448.679 261.846C448.421 261.934 448.204 262.065 448.028 262.241C447.858 262.417 447.729 262.631 447.642 262.883C447.56 263.135 447.513 263.422 447.501 263.744L446.991 263.586C446.991 262.971 447.053 262.405 447.176 261.89C447.299 261.368 447.478 260.914 447.712 260.527C447.952 260.141 448.245 259.842 448.591 259.631C448.937 259.42 449.332 259.314 449.777 259.314C449.918 259.314 450.062 259.326 450.208 259.35C450.354 259.367 450.475 259.394 450.568 259.429ZM456.598 266.855V262.619C456.598 262.314 456.548 262.054 456.448 261.837C456.349 261.614 456.193 261.441 455.982 261.318C455.777 261.195 455.511 261.134 455.183 261.134C454.901 261.134 454.658 261.184 454.453 261.283C454.248 261.377 454.09 261.515 453.979 261.696C453.867 261.872 453.812 262.08 453.812 262.32H451.28C451.28 261.916 451.374 261.532 451.562 261.169C451.749 260.806 452.021 260.486 452.379 260.211C452.736 259.93 453.161 259.71 453.653 259.552C454.151 259.394 454.708 259.314 455.323 259.314C456.062 259.314 456.718 259.438 457.292 259.684C457.866 259.93 458.317 260.299 458.646 260.791C458.979 261.283 459.146 261.898 459.146 262.637V266.706C459.146 267.228 459.179 267.655 459.243 267.989C459.308 268.317 459.401 268.604 459.524 268.851V269H456.967C456.844 268.742 456.75 268.42 456.686 268.033C456.627 267.641 456.598 267.248 456.598 266.855ZM456.932 263.208L456.949 264.641H455.534C455.2 264.641 454.91 264.679 454.664 264.755C454.418 264.831 454.216 264.939 454.058 265.08C453.899 265.215 453.782 265.373 453.706 265.555C453.636 265.736 453.601 265.936 453.601 266.152C453.601 266.369 453.65 266.565 453.75 266.741C453.85 266.911 453.993 267.046 454.181 267.146C454.368 267.239 454.588 267.286 454.84 267.286C455.221 267.286 455.552 267.21 455.833 267.058C456.114 266.905 456.331 266.718 456.483 266.495C456.642 266.272 456.724 266.062 456.729 265.862L457.397 266.935C457.304 267.175 457.175 267.424 457.011 267.682C456.853 267.939 456.65 268.183 456.404 268.411C456.158 268.634 455.862 268.818 455.517 268.965C455.171 269.105 454.761 269.176 454.286 269.176C453.683 269.176 453.135 269.056 452.643 268.815C452.156 268.569 451.77 268.232 451.482 267.805C451.201 267.371 451.061 266.879 451.061 266.328C451.061 265.83 451.154 265.388 451.342 265.001C451.529 264.614 451.805 264.289 452.168 264.025C452.537 263.756 452.997 263.554 453.548 263.419C454.099 263.278 454.737 263.208 455.464 263.208H456.932ZM461.098 255.5H463.629V266.82L463.374 269H461.098V255.5ZM469.649 264.148V264.333C469.649 265.042 469.573 265.692 469.421 266.284C469.274 266.876 469.046 267.389 468.735 267.822C468.425 268.25 468.038 268.584 467.575 268.824C467.118 269.059 466.579 269.176 465.958 269.176C465.378 269.176 464.874 269.059 464.446 268.824C464.024 268.59 463.67 268.259 463.383 267.831C463.096 267.403 462.864 266.902 462.688 266.328C462.513 265.754 462.381 265.127 462.293 264.447V264.043C462.381 263.363 462.513 262.736 462.688 262.162C462.864 261.588 463.096 261.087 463.383 260.659C463.67 260.231 464.024 259.9 464.446 259.666C464.868 259.432 465.366 259.314 465.94 259.314C466.567 259.314 467.112 259.435 467.575 259.675C468.044 259.909 468.431 260.243 468.735 260.677C469.046 261.104 469.274 261.614 469.421 262.206C469.573 262.792 469.649 263.439 469.649 264.148ZM467.118 264.333V264.148C467.118 263.762 467.089 263.398 467.03 263.059C466.978 262.713 466.884 262.411 466.749 262.153C466.614 261.89 466.43 261.682 466.195 261.529C465.967 261.377 465.671 261.301 465.308 261.301C464.962 261.301 464.669 261.359 464.429 261.477C464.188 261.594 463.989 261.758 463.831 261.969C463.679 262.18 463.564 262.432 463.488 262.725C463.412 263.012 463.365 263.328 463.348 263.674V264.825C463.365 265.288 463.441 265.698 463.576 266.056C463.717 266.407 463.928 266.686 464.209 266.891C464.496 267.09 464.868 267.189 465.325 267.189C465.683 267.189 465.979 267.119 466.213 266.979C466.447 266.838 466.629 266.639 466.758 266.381C466.893 266.123 466.986 265.821 467.039 265.476C467.092 265.124 467.118 264.743 467.118 264.333ZM476.355 266.855V262.619C476.355 262.314 476.306 262.054 476.206 261.837C476.106 261.614 475.951 261.441 475.74 261.318C475.535 261.195 475.269 261.134 474.94 261.134C474.659 261.134 474.416 261.184 474.211 261.283C474.006 261.377 473.848 261.515 473.736 261.696C473.625 261.872 473.569 262.08 473.569 262.32H471.038C471.038 261.916 471.132 261.532 471.319 261.169C471.507 260.806 471.779 260.486 472.137 260.211C472.494 259.93 472.919 259.71 473.411 259.552C473.909 259.394 474.466 259.314 475.081 259.314C475.819 259.314 476.476 259.438 477.05 259.684C477.624 259.93 478.075 260.299 478.403 260.791C478.737 261.283 478.904 261.898 478.904 262.637V266.706C478.904 267.228 478.937 267.655 479.001 267.989C479.065 268.317 479.159 268.604 479.282 268.851V269H476.725C476.602 268.742 476.508 268.42 476.443 268.033C476.385 267.641 476.355 267.248 476.355 266.855ZM476.689 263.208L476.707 264.641H475.292C474.958 264.641 474.668 264.679 474.422 264.755C474.176 264.831 473.974 264.939 473.815 265.08C473.657 265.215 473.54 265.373 473.464 265.555C473.394 265.736 473.358 265.936 473.358 266.152C473.358 266.369 473.408 266.565 473.508 266.741C473.607 266.911 473.751 267.046 473.938 267.146C474.126 267.239 474.346 267.286 474.598 267.286C474.979 267.286 475.31 267.21 475.591 267.058C475.872 266.905 476.089 266.718 476.241 266.495C476.399 266.272 476.481 266.062 476.487 265.862L477.155 266.935C477.062 267.175 476.933 267.424 476.769 267.682C476.61 267.939 476.408 268.183 476.162 268.411C475.916 268.634 475.62 268.818 475.274 268.965C474.929 269.105 474.519 269.176 474.044 269.176C473.44 269.176 472.893 269.056 472.4 268.815C471.914 268.569 471.527 268.232 471.24 267.805C470.959 267.371 470.818 266.879 470.818 266.328C470.818 265.83 470.912 265.388 471.1 265.001C471.287 264.614 471.562 264.289 471.926 264.025C472.295 263.756 472.755 263.554 473.306 263.419C473.856 263.278 474.495 263.208 475.222 263.208H476.689ZM483.527 255.5V269H480.987V255.5H483.527ZM488.089 255.5V269H485.558V255.5H488.089ZM487.729 263.911H487.034C487.04 263.249 487.128 262.64 487.298 262.083C487.468 261.521 487.711 261.034 488.027 260.624C488.344 260.208 488.722 259.886 489.161 259.657C489.606 259.429 490.099 259.314 490.638 259.314C491.106 259.314 491.531 259.382 491.912 259.517C492.299 259.646 492.63 259.856 492.905 260.149C493.187 260.437 493.403 260.814 493.556 261.283C493.708 261.752 493.784 262.32 493.784 262.988V269H491.235V262.971C491.235 262.549 491.174 262.218 491.051 261.978C490.934 261.731 490.761 261.559 490.532 261.459C490.31 261.354 490.034 261.301 489.706 261.301C489.343 261.301 489.032 261.368 488.774 261.503C488.522 261.638 488.32 261.825 488.168 262.065C488.016 262.3 487.904 262.575 487.834 262.892C487.764 263.208 487.729 263.548 487.729 263.911ZM500.842 266.855V262.619C500.842 262.314 500.792 262.054 500.692 261.837C500.593 261.614 500.438 261.441 500.227 261.318C500.021 261.195 499.755 261.134 499.427 261.134C499.146 261.134 498.902 261.184 498.697 261.283C498.492 261.377 498.334 261.515 498.223 261.696C498.111 261.872 498.056 262.08 498.056 262.32H495.524C495.524 261.916 495.618 261.532 495.806 261.169C495.993 260.806 496.266 260.486 496.623 260.211C496.98 259.93 497.405 259.71 497.897 259.552C498.396 259.394 498.952 259.314 499.567 259.314C500.306 259.314 500.962 259.438 501.536 259.684C502.11 259.93 502.562 260.299 502.89 260.791C503.224 261.283 503.391 261.898 503.391 262.637V266.706C503.391 267.228 503.423 267.655 503.487 267.989C503.552 268.317 503.646 268.604 503.769 268.851V269H501.211C501.088 268.742 500.994 268.42 500.93 268.033C500.871 267.641 500.842 267.248 500.842 266.855ZM501.176 263.208L501.193 264.641H499.778C499.444 264.641 499.154 264.679 498.908 264.755C498.662 264.831 498.46 264.939 498.302 265.08C498.144 265.215 498.026 265.373 497.95 265.555C497.88 265.736 497.845 265.936 497.845 266.152C497.845 266.369 497.895 266.565 497.994 266.741C498.094 266.911 498.237 267.046 498.425 267.146C498.612 267.239 498.832 267.286 499.084 267.286C499.465 267.286 499.796 267.21 500.077 267.058C500.358 266.905 500.575 266.718 500.728 266.495C500.886 266.272 500.968 266.062 500.974 265.862L501.642 266.935C501.548 267.175 501.419 267.424 501.255 267.682C501.097 267.939 500.895 268.183 500.648 268.411C500.402 268.634 500.106 268.818 499.761 268.965C499.415 269.105 499.005 269.176 498.53 269.176C497.927 269.176 497.379 269.056 496.887 268.815C496.4 268.569 496.014 268.232 495.727 267.805C495.445 267.371 495.305 266.879 495.305 266.328C495.305 265.83 495.398 265.388 495.586 265.001C495.773 264.614 496.049 264.289 496.412 264.025C496.781 263.756 497.241 263.554 497.792 263.419C498.343 263.278 498.981 263.208 499.708 263.208H501.176ZM507.873 261.564V269H505.342V259.49H507.724L507.873 261.564ZM510.738 259.429L510.694 261.775C510.571 261.758 510.422 261.743 510.246 261.731C510.076 261.714 509.921 261.705 509.78 261.705C509.423 261.705 509.112 261.752 508.849 261.846C508.591 261.934 508.374 262.065 508.198 262.241C508.028 262.417 507.899 262.631 507.812 262.883C507.729 263.135 507.683 263.422 507.671 263.744L507.161 263.586C507.161 262.971 507.223 262.405 507.346 261.89C507.469 261.368 507.647 260.914 507.882 260.527C508.122 260.141 508.415 259.842 508.761 259.631C509.106 259.42 509.502 259.314 509.947 259.314C510.088 259.314 510.231 259.326 510.378 259.35C510.524 259.367 510.645 259.394 510.738 259.429ZM520.793 269.176C520.055 269.176 519.393 269.059 518.807 268.824C518.221 268.584 517.723 268.253 517.312 267.831C516.908 267.409 516.598 266.92 516.381 266.363C516.164 265.801 516.056 265.203 516.056 264.57V264.219C516.056 263.498 516.158 262.839 516.363 262.241C516.568 261.644 516.861 261.125 517.242 260.686C517.629 260.246 518.098 259.909 518.648 259.675C519.199 259.435 519.82 259.314 520.512 259.314C521.186 259.314 521.783 259.426 522.305 259.648C522.826 259.871 523.263 260.188 523.614 260.598C523.972 261.008 524.241 261.5 524.423 262.074C524.604 262.643 524.695 263.275 524.695 263.973V265.027H517.137V263.34H522.208V263.146C522.208 262.795 522.144 262.481 522.015 262.206C521.892 261.925 521.704 261.702 521.452 261.538C521.2 261.374 520.878 261.292 520.485 261.292C520.151 261.292 519.864 261.365 519.624 261.512C519.384 261.658 519.188 261.863 519.035 262.127C518.889 262.391 518.777 262.701 518.701 263.059C518.631 263.41 518.596 263.797 518.596 264.219V264.57C518.596 264.951 518.648 265.303 518.754 265.625C518.865 265.947 519.021 266.226 519.22 266.46C519.425 266.694 519.671 266.876 519.958 267.005C520.251 267.134 520.582 267.198 520.951 267.198C521.408 267.198 521.833 267.11 522.226 266.935C522.624 266.753 522.967 266.48 523.254 266.117L524.484 267.453C524.285 267.74 524.013 268.016 523.667 268.279C523.327 268.543 522.917 268.76 522.437 268.93C521.956 269.094 521.408 269.176 520.793 269.176ZM528.668 261.459V269H526.128V259.49H528.51L528.668 261.459ZM528.316 263.911H527.613C527.613 263.249 527.692 262.64 527.851 262.083C528.015 261.521 528.252 261.034 528.562 260.624C528.879 260.208 529.269 259.886 529.731 259.657C530.194 259.429 530.73 259.314 531.34 259.314C531.762 259.314 532.148 259.379 532.5 259.508C532.852 259.631 533.153 259.827 533.405 260.097C533.663 260.36 533.862 260.706 534.003 261.134C534.144 261.556 534.214 262.062 534.214 262.654V269H531.683V262.936C531.683 262.502 531.624 262.168 531.507 261.934C531.39 261.699 531.223 261.535 531.006 261.441C530.795 261.348 530.54 261.301 530.241 261.301C529.913 261.301 529.626 261.368 529.38 261.503C529.14 261.638 528.94 261.825 528.782 262.065C528.624 262.3 528.507 262.575 528.431 262.892C528.354 263.208 528.316 263.548 528.316 263.911ZM533.977 263.621L533.071 263.735C533.071 263.114 533.147 262.537 533.3 262.004C533.458 261.471 533.689 261.002 533.994 260.598C534.305 260.193 534.688 259.88 535.146 259.657C535.603 259.429 536.13 259.314 536.728 259.314C537.185 259.314 537.601 259.382 537.976 259.517C538.351 259.646 538.67 259.854 538.934 260.141C539.203 260.422 539.408 260.791 539.549 261.248C539.695 261.705 539.769 262.265 539.769 262.927V269H537.229V262.927C537.229 262.487 537.17 262.153 537.053 261.925C536.941 261.69 536.777 261.529 536.561 261.441C536.35 261.348 536.098 261.301 535.805 261.301C535.5 261.301 535.233 261.362 535.005 261.485C534.776 261.603 534.586 261.767 534.434 261.978C534.281 262.188 534.167 262.435 534.091 262.716C534.015 262.991 533.977 263.293 533.977 263.621Z" fill="#E1E1E6"/>
<path d="M567.071 270H564.285L564.303 267.943H567.071C567.763 267.943 568.346 267.788 568.82 267.478C569.295 267.161 569.652 266.701 569.893 266.098C570.139 265.494 570.262 264.765 570.262 263.909V263.285C570.262 262.629 570.191 262.052 570.051 261.554C569.916 261.056 569.714 260.637 569.444 260.297C569.175 259.957 568.844 259.702 568.451 259.532C568.059 259.356 567.607 259.269 567.098 259.269H564.232V257.203H567.098C567.953 257.203 568.735 257.35 569.444 257.643C570.159 257.93 570.777 258.343 571.299 258.882C571.82 259.421 572.222 260.065 572.503 260.815C572.79 261.56 572.934 262.389 572.934 263.303V263.909C572.934 264.817 572.79 265.646 572.503 266.396C572.222 267.146 571.82 267.791 571.299 268.33C570.783 268.863 570.165 269.276 569.444 269.569C568.729 269.856 567.938 270 567.071 270ZM565.779 257.203V270H563.143V257.203H565.779ZM579.068 270.176C578.33 270.176 577.668 270.059 577.082 269.824C576.496 269.584 575.998 269.253 575.588 268.831C575.184 268.409 574.873 267.92 574.656 267.363C574.439 266.801 574.331 266.203 574.331 265.57V265.219C574.331 264.498 574.434 263.839 574.639 263.241C574.844 262.644 575.137 262.125 575.518 261.686C575.904 261.246 576.373 260.909 576.924 260.675C577.475 260.435 578.096 260.314 578.787 260.314C579.461 260.314 580.059 260.426 580.58 260.648C581.102 260.871 581.538 261.188 581.89 261.598C582.247 262.008 582.517 262.5 582.698 263.074C582.88 263.643 582.971 264.275 582.971 264.973V266.027H575.412V264.34H580.483V264.146C580.483 263.795 580.419 263.481 580.29 263.206C580.167 262.925 579.979 262.702 579.728 262.538C579.476 262.374 579.153 262.292 578.761 262.292C578.427 262.292 578.14 262.365 577.899 262.512C577.659 262.658 577.463 262.863 577.311 263.127C577.164 263.391 577.053 263.701 576.977 264.059C576.906 264.41 576.871 264.797 576.871 265.219V265.57C576.871 265.951 576.924 266.303 577.029 266.625C577.141 266.947 577.296 267.226 577.495 267.46C577.7 267.694 577.946 267.876 578.233 268.005C578.526 268.134 578.857 268.198 579.227 268.198C579.684 268.198 580.108 268.11 580.501 267.935C580.899 267.753 581.242 267.48 581.529 267.117L582.76 268.453C582.561 268.74 582.288 269.016 581.942 269.279C581.603 269.543 581.192 269.76 580.712 269.93C580.231 270.094 579.684 270.176 579.068 270.176ZM579.227 256.491L581.881 258.935V259.04H579.868L578.488 257.757L577.126 259.04H575.148V258.908L577.759 256.491H579.227ZM594.52 267.724V260.49H597.051V270H594.669L594.52 267.724ZM594.801 265.772L595.548 265.755C595.548 266.388 595.475 266.977 595.328 267.521C595.182 268.061 594.962 268.529 594.669 268.928C594.376 269.32 594.007 269.628 593.562 269.851C593.116 270.067 592.592 270.176 591.988 270.176C591.525 270.176 591.098 270.111 590.705 269.982C590.318 269.848 589.984 269.64 589.703 269.358C589.428 269.071 589.211 268.705 589.053 268.26C588.9 267.809 588.824 267.267 588.824 266.634V260.49H591.355V266.651C591.355 266.933 591.388 267.17 591.452 267.363C591.522 267.557 591.619 267.715 591.742 267.838C591.865 267.961 592.009 268.049 592.173 268.102C592.343 268.154 592.53 268.181 592.735 268.181C593.257 268.181 593.667 268.075 593.966 267.864C594.271 267.653 594.484 267.366 594.607 267.003C594.736 266.634 594.801 266.224 594.801 265.772ZM601.516 262.459V270H598.976V260.49H601.357L601.516 262.459ZM601.164 264.911H600.461C600.461 264.249 600.54 263.64 600.698 263.083C600.862 262.521 601.1 262.034 601.41 261.624C601.727 261.208 602.116 260.886 602.579 260.657C603.042 260.429 603.578 260.314 604.188 260.314C604.609 260.314 604.996 260.379 605.348 260.508C605.699 260.631 606.001 260.827 606.253 261.097C606.511 261.36 606.71 261.706 606.851 262.134C606.991 262.556 607.062 263.062 607.062 263.654V270H604.53V263.936C604.53 263.502 604.472 263.168 604.354 262.934C604.237 262.699 604.07 262.535 603.854 262.441C603.643 262.348 603.388 262.301 603.089 262.301C602.761 262.301 602.474 262.368 602.228 262.503C601.987 262.638 601.788 262.825 601.63 263.065C601.472 263.3 601.354 263.575 601.278 263.892C601.202 264.208 601.164 264.548 601.164 264.911ZM606.824 264.621L605.919 264.735C605.919 264.114 605.995 263.537 606.147 263.004C606.306 262.471 606.537 262.002 606.842 261.598C607.152 261.193 607.536 260.88 607.993 260.657C608.45 260.429 608.978 260.314 609.575 260.314C610.032 260.314 610.448 260.382 610.823 260.517C611.198 260.646 611.518 260.854 611.781 261.141C612.051 261.422 612.256 261.791 612.396 262.248C612.543 262.705 612.616 263.265 612.616 263.927V270H610.076V263.927C610.076 263.487 610.018 263.153 609.9 262.925C609.789 262.69 609.625 262.529 609.408 262.441C609.197 262.348 608.945 262.301 608.652 262.301C608.348 262.301 608.081 262.362 607.853 262.485C607.624 262.603 607.434 262.767 607.281 262.978C607.129 263.188 607.015 263.435 606.938 263.716C606.862 263.991 606.824 264.293 606.824 264.621ZM621.537 262.521V270H619.006V260.49H621.379L621.537 262.521ZM621.168 264.911H620.482C620.482 264.208 620.573 263.575 620.755 263.013C620.937 262.444 621.191 261.961 621.52 261.562C621.848 261.158 622.237 260.851 622.688 260.64C623.146 260.423 623.655 260.314 624.218 260.314C624.663 260.314 625.07 260.379 625.439 260.508C625.809 260.637 626.125 260.842 626.389 261.123C626.658 261.404 626.863 261.776 627.004 262.239C627.15 262.702 627.224 263.268 627.224 263.936V270H624.675V263.927C624.675 263.505 624.616 263.177 624.499 262.942C624.382 262.708 624.209 262.544 623.98 262.45C623.758 262.351 623.482 262.301 623.154 262.301C622.814 262.301 622.519 262.368 622.267 262.503C622.021 262.638 621.815 262.825 621.651 263.065C621.493 263.3 621.373 263.575 621.291 263.892C621.209 264.208 621.168 264.548 621.168 264.911ZM628.744 265.342V265.157C628.744 264.46 628.844 263.818 629.043 263.232C629.242 262.641 629.532 262.128 629.913 261.694C630.294 261.261 630.763 260.924 631.319 260.684C631.876 260.438 632.515 260.314 633.235 260.314C633.956 260.314 634.598 260.438 635.16 260.684C635.723 260.924 636.194 261.261 636.575 261.694C636.962 262.128 637.255 262.641 637.454 263.232C637.653 263.818 637.753 264.46 637.753 265.157V265.342C637.753 266.033 637.653 266.675 637.454 267.267C637.255 267.853 636.962 268.365 636.575 268.805C636.194 269.238 635.726 269.575 635.169 269.815C634.612 270.056 633.974 270.176 633.253 270.176C632.532 270.176 631.891 270.056 631.328 269.815C630.771 269.575 630.3 269.238 629.913 268.805C629.532 268.365 629.242 267.853 629.043 267.267C628.844 266.675 628.744 266.033 628.744 265.342ZM631.275 265.157V265.342C631.275 265.74 631.311 266.112 631.381 266.458C631.451 266.804 631.562 267.108 631.715 267.372C631.873 267.63 632.078 267.832 632.33 267.979C632.582 268.125 632.89 268.198 633.253 268.198C633.604 268.198 633.906 268.125 634.158 267.979C634.41 267.832 634.612 267.63 634.765 267.372C634.917 267.108 635.028 266.804 635.099 266.458C635.175 266.112 635.213 265.74 635.213 265.342V265.157C635.213 264.771 635.175 264.407 635.099 264.067C635.028 263.722 634.914 263.417 634.756 263.153C634.604 262.884 634.401 262.673 634.149 262.521C633.897 262.368 633.593 262.292 633.235 262.292C632.878 262.292 632.573 262.368 632.321 262.521C632.075 262.673 631.873 262.884 631.715 263.153C631.562 263.417 631.451 263.722 631.381 264.067C631.311 264.407 631.275 264.771 631.275 265.157ZM641.84 262.459V270H639.3V260.49H641.682L641.84 262.459ZM641.488 264.911H640.785C640.785 264.249 640.864 263.64 641.022 263.083C641.187 262.521 641.424 262.034 641.734 261.624C642.051 261.208 642.44 260.886 642.903 260.657C643.366 260.429 643.902 260.314 644.512 260.314C644.934 260.314 645.32 260.379 645.672 260.508C646.023 260.631 646.325 260.827 646.577 261.097C646.835 261.36 647.034 261.706 647.175 262.134C647.315 262.556 647.386 263.062 647.386 263.654V270H644.854V263.936C644.854 263.502 644.796 263.168 644.679 262.934C644.562 262.699 644.395 262.535 644.178 262.441C643.967 262.348 643.712 262.301 643.413 262.301C643.085 262.301 642.798 262.368 642.552 262.503C642.312 262.638 642.112 262.825 641.954 263.065C641.796 263.3 641.679 263.575 641.603 263.892C641.526 264.208 641.488 264.548 641.488 264.911ZM647.148 264.621L646.243 264.735C646.243 264.114 646.319 263.537 646.472 263.004C646.63 262.471 646.861 262.002 647.166 261.598C647.477 261.193 647.86 260.88 648.317 260.657C648.774 260.429 649.302 260.314 649.899 260.314C650.356 260.314 650.772 260.382 651.147 260.517C651.522 260.646 651.842 260.854 652.105 261.141C652.375 261.422 652.58 261.791 652.721 262.248C652.867 262.705 652.94 263.265 652.94 263.927V270H650.4V263.927C650.4 263.487 650.342 263.153 650.225 262.925C650.113 262.69 649.949 262.529 649.732 262.441C649.521 262.348 649.27 262.301 648.977 262.301C648.672 262.301 648.405 262.362 648.177 262.485C647.948 262.603 647.758 262.767 647.605 262.978C647.453 263.188 647.339 263.435 647.263 263.716C647.187 263.991 647.148 264.293 647.148 264.621ZM659.277 270.176C658.539 270.176 657.877 270.059 657.291 269.824C656.705 269.584 656.207 269.253 655.797 268.831C655.393 268.409 655.082 267.92 654.865 267.363C654.648 266.801 654.54 266.203 654.54 265.57V265.219C654.54 264.498 654.643 263.839 654.848 263.241C655.053 262.644 655.346 262.125 655.727 261.686C656.113 261.246 656.582 260.909 657.133 260.675C657.684 260.435 658.305 260.314 658.996 260.314C659.67 260.314 660.268 260.426 660.789 260.648C661.311 260.871 661.747 261.188 662.099 261.598C662.456 262.008 662.726 262.5 662.907 263.074C663.089 263.643 663.18 264.275 663.18 264.973V266.027H655.621V264.34H660.692V264.146C660.692 263.795 660.628 263.481 660.499 263.206C660.376 262.925 660.188 262.702 659.937 262.538C659.685 262.374 659.362 262.292 658.97 262.292C658.636 262.292 658.349 262.365 658.108 262.512C657.868 262.658 657.672 262.863 657.52 263.127C657.373 263.391 657.262 263.701 657.186 264.059C657.115 264.41 657.08 264.797 657.08 265.219V265.57C657.08 265.951 657.133 266.303 657.238 266.625C657.35 266.947 657.505 267.226 657.704 267.46C657.909 267.694 658.155 267.876 658.442 268.005C658.735 268.134 659.066 268.198 659.436 268.198C659.893 268.198 660.317 268.11 660.71 267.935C661.108 267.753 661.451 267.48 661.738 267.117L662.969 268.453C662.77 268.74 662.497 269.016 662.151 269.279C661.812 269.543 661.401 269.76 660.921 269.93C660.44 270.094 659.893 270.176 659.277 270.176ZM671.635 262.318V273.656H669.104V260.49H671.45L671.635 262.318ZM677.655 265.14V265.324C677.655 266.016 677.573 266.657 677.409 267.249C677.251 267.841 677.017 268.356 676.706 268.796C676.396 269.229 676.009 269.569 675.546 269.815C675.089 270.056 674.562 270.176 673.964 270.176C673.384 270.176 672.88 270.059 672.452 269.824C672.024 269.59 671.664 269.262 671.371 268.84C671.084 268.412 670.853 267.917 670.677 267.354C670.501 266.792 670.366 266.188 670.272 265.544V265.061C670.366 264.369 670.501 263.736 670.677 263.162C670.853 262.582 671.084 262.081 671.371 261.659C671.664 261.231 672.021 260.9 672.443 260.666C672.871 260.432 673.372 260.314 673.946 260.314C674.55 260.314 675.08 260.429 675.537 260.657C676 260.886 676.387 261.214 676.697 261.642C677.014 262.069 677.251 262.579 677.409 263.171C677.573 263.763 677.655 264.419 677.655 265.14ZM675.115 265.324V265.14C675.115 264.735 675.08 264.363 675.01 264.023C674.945 263.678 674.84 263.376 674.693 263.118C674.553 262.86 674.365 262.661 674.131 262.521C673.902 262.374 673.624 262.301 673.296 262.301C672.95 262.301 672.654 262.356 672.408 262.468C672.168 262.579 671.972 262.74 671.819 262.951C671.667 263.162 671.553 263.414 671.477 263.707C671.4 264 671.354 264.331 671.336 264.7V265.922C671.365 266.355 671.447 266.745 671.582 267.091C671.717 267.431 671.925 267.7 672.206 267.899C672.487 268.099 672.856 268.198 673.313 268.198C673.647 268.198 673.929 268.125 674.157 267.979C674.386 267.826 674.57 267.618 674.711 267.354C674.857 267.091 674.96 266.786 675.019 266.44C675.083 266.095 675.115 265.723 675.115 265.324ZM684.361 267.855V263.619C684.361 263.314 684.312 263.054 684.212 262.837C684.112 262.614 683.957 262.441 683.746 262.318C683.541 262.195 683.274 262.134 682.946 262.134C682.665 262.134 682.422 262.184 682.217 262.283C682.012 262.377 681.854 262.515 681.742 262.696C681.631 262.872 681.575 263.08 681.575 263.32H679.044C679.044 262.916 679.138 262.532 679.325 262.169C679.513 261.806 679.785 261.486 680.143 261.211C680.5 260.93 680.925 260.71 681.417 260.552C681.915 260.394 682.472 260.314 683.087 260.314C683.825 260.314 684.481 260.438 685.056 260.684C685.63 260.93 686.081 261.299 686.409 261.791C686.743 262.283 686.91 262.898 686.91 263.637V267.706C686.91 268.228 686.942 268.655 687.007 268.989C687.071 269.317 687.165 269.604 687.288 269.851V270H684.73C684.607 269.742 684.514 269.42 684.449 269.033C684.391 268.641 684.361 268.248 684.361 267.855ZM684.695 264.208L684.713 265.641H683.298C682.964 265.641 682.674 265.679 682.428 265.755C682.182 265.831 681.979 265.939 681.821 266.08C681.663 266.215 681.546 266.373 681.47 266.555C681.399 266.736 681.364 266.936 681.364 267.152C681.364 267.369 681.414 267.565 681.514 267.741C681.613 267.911 681.757 268.046 681.944 268.146C682.132 268.239 682.352 268.286 682.604 268.286C682.984 268.286 683.315 268.21 683.597 268.058C683.878 267.905 684.095 267.718 684.247 267.495C684.405 267.272 684.487 267.062 684.493 266.862L685.161 267.935C685.067 268.175 684.938 268.424 684.774 268.682C684.616 268.939 684.414 269.183 684.168 269.411C683.922 269.634 683.626 269.818 683.28 269.965C682.935 270.105 682.524 270.176 682.05 270.176C681.446 270.176 680.898 270.056 680.406 269.815C679.92 269.569 679.533 269.232 679.246 268.805C678.965 268.371 678.824 267.879 678.824 267.328C678.824 266.83 678.918 266.388 679.105 266.001C679.293 265.614 679.568 265.289 679.932 265.025C680.301 264.756 680.761 264.554 681.312 264.419C681.862 264.278 682.501 264.208 683.228 264.208H684.695ZM691.393 262.564V270H688.861V260.49H691.243L691.393 262.564ZM694.258 260.429L694.214 262.775C694.091 262.758 693.941 262.743 693.766 262.731C693.596 262.714 693.44 262.705 693.3 262.705C692.942 262.705 692.632 262.752 692.368 262.846C692.11 262.934 691.894 263.065 691.718 263.241C691.548 263.417 691.419 263.631 691.331 263.883C691.249 264.135 691.202 264.422 691.19 264.744L690.681 264.586C690.681 263.971 690.742 263.405 690.865 262.89C690.988 262.368 691.167 261.914 691.401 261.527C691.642 261.141 691.935 260.842 692.28 260.631C692.626 260.42 693.021 260.314 693.467 260.314C693.607 260.314 693.751 260.326 693.897 260.35C694.044 260.367 694.164 260.394 694.258 260.429ZM700.287 267.855V263.619C700.287 263.314 700.237 263.054 700.138 262.837C700.038 262.614 699.883 262.441 699.672 262.318C699.467 262.195 699.2 262.134 698.872 262.134C698.591 262.134 698.348 262.184 698.143 262.283C697.938 262.377 697.779 262.515 697.668 262.696C697.557 262.872 697.501 263.08 697.501 263.32H694.97C694.97 262.916 695.063 262.532 695.251 262.169C695.438 261.806 695.711 261.486 696.068 261.211C696.426 260.93 696.851 260.71 697.343 260.552C697.841 260.394 698.397 260.314 699.013 260.314C699.751 260.314 700.407 260.438 700.981 260.684C701.556 260.93 702.007 261.299 702.335 261.791C702.669 262.283 702.836 262.898 702.836 263.637V267.706C702.836 268.228 702.868 268.655 702.933 268.989C702.997 269.317 703.091 269.604 703.214 269.851V270H700.656C700.533 269.742 700.439 269.42 700.375 269.033C700.316 268.641 700.287 268.248 700.287 267.855ZM700.621 264.208L700.639 265.641H699.224C698.89 265.641 698.6 265.679 698.354 265.755C698.107 265.831 697.905 265.939 697.747 266.08C697.589 266.215 697.472 266.373 697.396 266.555C697.325 266.736 697.29 266.936 697.29 267.152C697.29 267.369 697.34 267.565 697.439 267.741C697.539 267.911 697.683 268.046 697.87 268.146C698.058 268.239 698.277 268.286 698.529 268.286C698.91 268.286 699.241 268.21 699.522 268.058C699.804 267.905 700.021 267.718 700.173 267.495C700.331 267.272 700.413 267.062 700.419 266.862L701.087 267.935C700.993 268.175 700.864 268.424 700.7 268.682C700.542 268.939 700.34 269.183 700.094 269.411C699.848 269.634 699.552 269.818 699.206 269.965C698.86 270.105 698.45 270.176 697.976 270.176C697.372 270.176 696.824 270.056 696.332 269.815C695.846 269.569 695.459 269.232 695.172 268.805C694.891 268.371 694.75 267.879 694.75 267.328C694.75 266.83 694.844 266.388 695.031 266.001C695.219 265.614 695.494 265.289 695.857 265.025C696.227 264.756 696.687 264.554 697.237 264.419C697.788 264.278 698.427 264.208 699.153 264.208H700.621ZM708.865 265.342V265.157C708.865 264.46 708.965 263.818 709.164 263.232C709.363 262.641 709.653 262.128 710.034 261.694C710.415 261.261 710.884 260.924 711.44 260.684C711.997 260.438 712.636 260.314 713.356 260.314C714.077 260.314 714.719 260.438 715.281 260.684C715.844 260.924 716.315 261.261 716.696 261.694C717.083 262.128 717.376 262.641 717.575 263.232C717.774 263.818 717.874 264.46 717.874 265.157V265.342C717.874 266.033 717.774 266.675 717.575 267.267C717.376 267.853 717.083 268.365 716.696 268.805C716.315 269.238 715.847 269.575 715.29 269.815C714.733 270.056 714.095 270.176 713.374 270.176C712.653 270.176 712.012 270.056 711.449 269.815C710.893 269.575 710.421 269.238 710.034 268.805C709.653 268.365 709.363 267.853 709.164 267.267C708.965 266.675 708.865 266.033 708.865 265.342ZM711.396 265.157V265.342C711.396 265.74 711.432 266.112 711.502 266.458C711.572 266.804 711.684 267.108 711.836 267.372C711.994 267.63 712.199 267.832 712.451 267.979C712.703 268.125 713.011 268.198 713.374 268.198C713.726 268.198 714.027 268.125 714.279 267.979C714.531 267.832 714.733 267.63 714.886 267.372C715.038 267.108 715.149 266.804 715.22 266.458C715.296 266.112 715.334 265.74 715.334 265.342V265.157C715.334 264.771 715.296 264.407 715.22 264.067C715.149 263.722 715.035 263.417 714.877 263.153C714.725 262.884 714.522 262.673 714.271 262.521C714.019 262.368 713.714 262.292 713.356 262.292C712.999 262.292 712.694 262.368 712.442 262.521C712.196 262.673 711.994 262.884 711.836 263.153C711.684 263.417 711.572 263.722 711.502 264.067C711.432 264.407 711.396 264.771 711.396 265.157ZM729.054 267.372C729.054 267.19 729.001 267.026 728.896 266.88C728.79 266.733 728.594 266.599 728.307 266.476C728.025 266.347 727.618 266.229 727.085 266.124C726.604 266.019 726.156 265.887 725.74 265.729C725.33 265.564 724.973 265.368 724.668 265.14C724.369 264.911 724.135 264.642 723.965 264.331C723.795 264.015 723.71 263.654 723.71 263.25C723.71 262.852 723.795 262.477 723.965 262.125C724.141 261.773 724.39 261.463 724.712 261.193C725.04 260.918 725.438 260.704 725.907 260.552C726.382 260.394 726.915 260.314 727.507 260.314C728.333 260.314 729.042 260.446 729.634 260.71C730.231 260.974 730.688 261.337 731.005 261.8C731.327 262.257 731.488 262.778 731.488 263.364H728.957C728.957 263.118 728.904 262.898 728.799 262.705C728.699 262.506 728.541 262.351 728.324 262.239C728.113 262.122 727.838 262.063 727.498 262.063C727.217 262.063 726.974 262.113 726.769 262.213C726.563 262.307 726.405 262.436 726.294 262.6C726.188 262.758 726.136 262.934 726.136 263.127C726.136 263.273 726.165 263.405 726.224 263.522C726.288 263.634 726.391 263.736 726.531 263.83C726.672 263.924 726.854 264.012 727.076 264.094C727.305 264.17 727.586 264.24 727.92 264.305C728.605 264.445 729.218 264.63 729.757 264.858C730.296 265.081 730.724 265.386 731.04 265.772C731.356 266.153 731.515 266.654 731.515 267.275C731.515 267.697 731.421 268.084 731.233 268.436C731.046 268.787 730.776 269.095 730.425 269.358C730.073 269.616 729.651 269.818 729.159 269.965C728.673 270.105 728.125 270.176 727.516 270.176C726.631 270.176 725.881 270.018 725.266 269.701C724.656 269.385 724.193 268.983 723.877 268.497C723.566 268.005 723.411 267.501 723.411 266.985H725.811C725.822 267.331 725.91 267.609 726.074 267.82C726.244 268.031 726.458 268.184 726.716 268.277C726.979 268.371 727.264 268.418 727.568 268.418C727.896 268.418 728.169 268.374 728.386 268.286C728.603 268.192 728.767 268.069 728.878 267.917C728.995 267.759 729.054 267.577 729.054 267.372ZM737.535 270.176C736.797 270.176 736.135 270.059 735.549 269.824C734.963 269.584 734.465 269.253 734.055 268.831C733.65 268.409 733.34 267.92 733.123 267.363C732.906 266.801 732.798 266.203 732.798 265.57V265.219C732.798 264.498 732.9 263.839 733.105 263.241C733.311 262.644 733.604 262.125 733.984 261.686C734.371 261.246 734.84 260.909 735.391 260.675C735.941 260.435 736.562 260.314 737.254 260.314C737.928 260.314 738.525 260.426 739.047 260.648C739.568 260.871 740.005 261.188 740.356 261.598C740.714 262.008 740.983 262.5 741.165 263.074C741.347 263.643 741.438 264.275 741.438 264.973V266.027H733.879V264.34H738.95V264.146C738.95 263.795 738.886 263.481 738.757 263.206C738.634 262.925 738.446 262.702 738.194 262.538C737.942 262.374 737.62 262.292 737.228 262.292C736.894 262.292 736.606 262.365 736.366 262.512C736.126 262.658 735.93 262.863 735.777 263.127C735.631 263.391 735.52 263.701 735.443 264.059C735.373 264.41 735.338 264.797 735.338 265.219V265.57C735.338 265.951 735.391 266.303 735.496 266.625C735.607 266.947 735.763 267.226 735.962 267.46C736.167 267.694 736.413 267.876 736.7 268.005C736.993 268.134 737.324 268.198 737.693 268.198C738.15 268.198 738.575 268.11 738.968 267.935C739.366 267.753 739.709 267.48 739.996 267.117L741.227 268.453C741.027 268.74 740.755 269.016 740.409 269.279C740.069 269.543 739.659 269.76 739.179 269.93C738.698 270.094 738.15 270.176 737.535 270.176ZM748.504 267.724V260.49H751.035V270H748.653L748.504 267.724ZM748.785 265.772L749.532 265.755C749.532 266.388 749.459 266.977 749.312 267.521C749.166 268.061 748.946 268.529 748.653 268.928C748.36 269.32 747.991 269.628 747.546 269.851C747.101 270.067 746.576 270.176 745.973 270.176C745.51 270.176 745.082 270.111 744.689 269.982C744.303 269.848 743.969 269.64 743.688 269.358C743.412 269.071 743.195 268.705 743.037 268.26C742.885 267.809 742.809 267.267 742.809 266.634V260.49H745.34V266.651C745.34 266.933 745.372 267.17 745.437 267.363C745.507 267.557 745.604 267.715 745.727 267.838C745.85 267.961 745.993 268.049 746.157 268.102C746.327 268.154 746.515 268.181 746.72 268.181C747.241 268.181 747.651 268.075 747.95 267.864C748.255 267.653 748.469 267.366 748.592 267.003C748.721 266.634 748.785 266.224 748.785 265.772ZM759.982 262.318V273.656H757.451V260.49H759.798L759.982 262.318ZM766.003 265.14V265.324C766.003 266.016 765.921 266.657 765.757 267.249C765.599 267.841 765.364 268.356 765.054 268.796C764.743 269.229 764.356 269.569 763.894 269.815C763.437 270.056 762.909 270.176 762.312 270.176C761.731 270.176 761.228 270.059 760.8 269.824C760.372 269.59 760.012 269.262 759.719 268.84C759.432 268.412 759.2 267.917 759.024 267.354C758.849 266.792 758.714 266.188 758.62 265.544V265.061C758.714 264.369 758.849 263.736 759.024 263.162C759.2 262.582 759.432 262.081 759.719 261.659C760.012 261.231 760.369 260.9 760.791 260.666C761.219 260.432 761.72 260.314 762.294 260.314C762.897 260.314 763.428 260.429 763.885 260.657C764.348 260.886 764.734 261.214 765.045 261.642C765.361 262.069 765.599 262.579 765.757 263.171C765.921 263.763 766.003 264.419 766.003 265.14ZM763.463 265.324V265.14C763.463 264.735 763.428 264.363 763.357 264.023C763.293 263.678 763.188 263.376 763.041 263.118C762.9 262.86 762.713 262.661 762.479 262.521C762.25 262.374 761.972 262.301 761.644 262.301C761.298 262.301 761.002 262.356 760.756 262.468C760.516 262.579 760.319 262.74 760.167 262.951C760.015 263.162 759.9 263.414 759.824 263.707C759.748 264 759.701 264.331 759.684 264.7V265.922C759.713 266.355 759.795 266.745 759.93 267.091C760.064 267.431 760.272 267.7 760.554 267.899C760.835 268.099 761.204 268.198 761.661 268.198C761.995 268.198 762.276 268.125 762.505 267.979C762.733 267.826 762.918 267.618 763.059 267.354C763.205 267.091 763.308 266.786 763.366 266.44C763.431 266.095 763.463 265.723 763.463 265.324ZM770.107 262.564V270H767.576V260.49H769.958L770.107 262.564ZM772.973 260.429L772.929 262.775C772.806 262.758 772.656 262.743 772.48 262.731C772.311 262.714 772.155 262.705 772.015 262.705C771.657 262.705 771.347 262.752 771.083 262.846C770.825 262.934 770.608 263.065 770.433 263.241C770.263 263.417 770.134 263.631 770.046 263.883C769.964 264.135 769.917 264.422 769.905 264.744L769.396 264.586C769.396 263.971 769.457 263.405 769.58 262.89C769.703 262.368 769.882 261.914 770.116 261.527C770.356 261.141 770.649 260.842 770.995 260.631C771.341 260.42 771.736 260.314 772.182 260.314C772.322 260.314 772.466 260.326 772.612 260.35C772.759 260.367 772.879 260.394 772.973 260.429ZM773.5 265.342V265.157C773.5 264.46 773.6 263.818 773.799 263.232C773.998 262.641 774.288 262.128 774.669 261.694C775.05 261.261 775.519 260.924 776.075 260.684C776.632 260.438 777.271 260.314 777.991 260.314C778.712 260.314 779.354 260.438 779.916 260.684C780.479 260.924 780.95 261.261 781.331 261.694C781.718 262.128 782.011 262.641 782.21 263.232C782.409 263.818 782.509 264.46 782.509 265.157V265.342C782.509 266.033 782.409 266.675 782.21 267.267C782.011 267.853 781.718 268.365 781.331 268.805C780.95 269.238 780.481 269.575 779.925 269.815C779.368 270.056 778.729 270.176 778.009 270.176C777.288 270.176 776.646 270.056 776.084 269.815C775.527 269.575 775.056 269.238 774.669 268.805C774.288 268.365 773.998 267.853 773.799 267.267C773.6 266.675 773.5 266.033 773.5 265.342ZM776.031 265.157V265.342C776.031 265.74 776.066 266.112 776.137 266.458C776.207 266.804 776.318 267.108 776.471 267.372C776.629 267.63 776.834 267.832 777.086 267.979C777.338 268.125 777.646 268.198 778.009 268.198C778.36 268.198 778.662 268.125 778.914 267.979C779.166 267.832 779.368 267.63 779.521 267.372C779.673 267.108 779.784 266.804 779.854 266.458C779.931 266.112 779.969 265.74 779.969 265.342V265.157C779.969 264.771 779.931 264.407 779.854 264.067C779.784 263.722 779.67 263.417 779.512 263.153C779.359 262.884 779.157 262.673 778.905 262.521C778.653 262.368 778.349 262.292 777.991 262.292C777.634 262.292 777.329 262.368 777.077 262.521C776.831 262.673 776.629 262.884 776.471 263.153C776.318 263.417 776.207 263.722 776.137 264.067C776.066 264.407 776.031 264.771 776.031 265.157ZM784.205 260.49H786.745V270.571C786.745 271.274 786.616 271.869 786.358 272.355C786.101 272.842 785.729 273.211 785.242 273.463C784.756 273.715 784.167 273.841 783.476 273.841C783.259 273.841 783.048 273.829 782.843 273.806C782.632 273.782 782.415 273.744 782.192 273.691L782.201 271.749C782.342 271.772 782.479 271.79 782.614 271.802C782.743 271.819 782.875 271.828 783.01 271.828C783.273 271.828 783.493 271.784 783.669 271.696C783.845 271.608 783.977 271.471 784.064 271.283C784.158 271.102 784.205 270.864 784.205 270.571V260.49ZM784.003 258.012C784.003 257.643 784.132 257.338 784.39 257.098C784.653 256.857 784.999 256.737 785.427 256.737C785.86 256.737 786.206 256.857 786.464 257.098C786.722 257.338 786.851 257.643 786.851 258.012C786.851 258.381 786.722 258.686 786.464 258.926C786.206 259.166 785.86 259.286 785.427 259.286C784.999 259.286 784.653 259.166 784.39 258.926C784.132 258.686 784.003 258.381 784.003 258.012ZM793.135 270.176C792.396 270.176 791.734 270.059 791.148 269.824C790.562 269.584 790.064 269.253 789.654 268.831C789.25 268.409 788.939 267.92 788.723 267.363C788.506 266.801 788.397 266.203 788.397 265.57V265.219C788.397 264.498 788.5 263.839 788.705 263.241C788.91 262.644 789.203 262.125 789.584 261.686C789.971 261.246 790.439 260.909 790.99 260.675C791.541 260.435 792.162 260.314 792.854 260.314C793.527 260.314 794.125 260.426 794.646 260.648C795.168 260.871 795.604 261.188 795.956 261.598C796.313 262.008 796.583 262.5 796.765 263.074C796.946 263.643 797.037 264.275 797.037 264.973V266.027H789.479V264.34H794.55V264.146C794.55 263.795 794.485 263.481 794.356 263.206C794.233 262.925 794.046 262.702 793.794 262.538C793.542 262.374 793.22 262.292 792.827 262.292C792.493 262.292 792.206 262.365 791.966 262.512C791.726 262.658 791.529 262.863 791.377 263.127C791.23 263.391 791.119 263.701 791.043 264.059C790.973 264.41 790.938 264.797 790.938 265.219V265.57C790.938 265.951 790.99 266.303 791.096 266.625C791.207 266.947 791.362 267.226 791.562 267.46C791.767 267.694 792.013 267.876 792.3 268.005C792.593 268.134 792.924 268.198 793.293 268.198C793.75 268.198 794.175 268.11 794.567 267.935C794.966 267.753 795.309 267.48 795.596 267.117L796.826 268.453C796.627 268.74 796.354 269.016 796.009 269.279C795.669 269.543 795.259 269.76 794.778 269.93C794.298 270.094 793.75 270.176 793.135 270.176ZM803.137 260.49V262.283H797.6V260.49H803.137ZM798.971 258.144H801.502V267.135C801.502 267.41 801.537 267.621 801.607 267.768C801.684 267.914 801.795 268.017 801.941 268.075C802.088 268.128 802.272 268.154 802.495 268.154C802.653 268.154 802.794 268.148 802.917 268.137C803.046 268.119 803.154 268.102 803.242 268.084L803.251 269.947C803.034 270.018 802.8 270.073 802.548 270.114C802.296 270.155 802.018 270.176 801.713 270.176C801.156 270.176 800.67 270.085 800.254 269.903C799.844 269.716 799.527 269.417 799.305 269.007C799.082 268.597 798.971 268.058 798.971 267.39V258.144ZM803.945 265.342V265.157C803.945 264.46 804.045 263.818 804.244 263.232C804.443 262.641 804.733 262.128 805.114 261.694C805.495 261.261 805.964 260.924 806.521 260.684C807.077 260.438 807.716 260.314 808.437 260.314C809.157 260.314 809.799 260.438 810.361 260.684C810.924 260.924 811.396 261.261 811.776 261.694C812.163 262.128 812.456 262.641 812.655 263.232C812.854 263.818 812.954 264.46 812.954 265.157V265.342C812.954 266.033 812.854 266.675 812.655 267.267C812.456 267.853 812.163 268.365 811.776 268.805C811.396 269.238 810.927 269.575 810.37 269.815C809.813 270.056 809.175 270.176 808.454 270.176C807.733 270.176 807.092 270.056 806.529 269.815C805.973 269.575 805.501 269.238 805.114 268.805C804.733 268.365 804.443 267.853 804.244 267.267C804.045 266.675 803.945 266.033 803.945 265.342ZM806.477 265.157V265.342C806.477 265.74 806.512 266.112 806.582 266.458C806.652 266.804 806.764 267.108 806.916 267.372C807.074 267.63 807.279 267.832 807.531 267.979C807.783 268.125 808.091 268.198 808.454 268.198C808.806 268.198 809.107 268.125 809.359 267.979C809.611 267.832 809.813 267.63 809.966 267.372C810.118 267.108 810.229 266.804 810.3 266.458C810.376 266.112 810.414 265.74 810.414 265.342V265.157C810.414 264.771 810.376 264.407 810.3 264.067C810.229 263.722 810.115 263.417 809.957 263.153C809.805 262.884 809.603 262.673 809.351 262.521C809.099 262.368 808.794 262.292 808.437 262.292C808.079 262.292 807.774 262.368 807.522 262.521C807.276 262.673 807.074 262.884 806.916 263.153C806.764 263.417 806.652 263.722 806.582 264.067C806.512 264.407 806.477 264.771 806.477 265.157Z" fill="#7C7C8A"/>
<path d="M826 282H554V286H826V282Z" fill="#7C7C8A" mask="url(#path-17-inside-1_127_2340)"/>
<path d="M840.891 267.031V255.5H843.018V269H841.093L840.891 267.031ZM834.703 264.351V264.166C834.703 263.445 834.788 262.789 834.958 262.197C835.128 261.6 835.374 261.087 835.696 260.659C836.019 260.226 836.411 259.895 836.874 259.666C837.337 259.432 837.858 259.314 838.438 259.314C839.013 259.314 839.517 259.426 839.95 259.648C840.384 259.871 840.753 260.19 841.058 260.606C841.362 261.017 841.605 261.509 841.787 262.083C841.969 262.651 842.098 263.284 842.174 263.981V264.57C842.098 265.25 841.969 265.871 841.787 266.434C841.605 266.996 841.362 267.482 841.058 267.893C840.753 268.303 840.381 268.619 839.941 268.842C839.508 269.064 839.001 269.176 838.421 269.176C837.847 269.176 837.328 269.056 836.865 268.815C836.408 268.575 836.019 268.238 835.696 267.805C835.374 267.371 835.128 266.861 834.958 266.275C834.788 265.684 834.703 265.042 834.703 264.351ZM836.821 264.166V264.351C836.821 264.784 836.859 265.188 836.936 265.563C837.018 265.938 837.144 266.27 837.313 266.557C837.483 266.838 837.703 267.061 837.973 267.225C838.248 267.383 838.576 267.462 838.957 267.462C839.438 267.462 839.833 267.356 840.144 267.146C840.454 266.935 840.697 266.65 840.873 266.293C841.055 265.93 841.178 265.525 841.242 265.08V263.489C841.207 263.144 841.134 262.821 841.022 262.522C840.917 262.224 840.773 261.963 840.592 261.74C840.41 261.512 840.185 261.336 839.915 261.213C839.651 261.084 839.338 261.02 838.975 261.02C838.588 261.02 838.26 261.102 837.99 261.266C837.721 261.43 837.498 261.655 837.322 261.942C837.152 262.229 837.026 262.563 836.944 262.944C836.862 263.325 836.821 263.732 836.821 264.166ZM850.954 266.759V259.49H853.081V269H851.077L850.954 266.759ZM851.253 264.781L851.965 264.764C851.965 265.402 851.895 265.991 851.754 266.53C851.613 267.063 851.396 267.529 851.104 267.928C850.811 268.32 850.436 268.628 849.979 268.851C849.521 269.067 848.974 269.176 848.335 269.176C847.872 269.176 847.447 269.108 847.061 268.974C846.674 268.839 846.34 268.631 846.059 268.35C845.783 268.068 845.569 267.702 845.417 267.251C845.265 266.8 845.188 266.261 845.188 265.634V259.49H847.307V265.651C847.307 265.997 847.348 266.287 847.43 266.521C847.512 266.75 847.623 266.935 847.764 267.075C847.904 267.216 848.068 267.315 848.256 267.374C848.443 267.433 848.643 267.462 848.854 267.462C849.457 267.462 849.932 267.345 850.277 267.11C850.629 266.87 850.878 266.548 851.024 266.144C851.177 265.739 851.253 265.285 851.253 264.781ZM857.379 261.301V269H855.261V259.49H857.282L857.379 261.301ZM860.288 259.429L860.271 261.397C860.142 261.374 860.001 261.356 859.849 261.345C859.702 261.333 859.556 261.327 859.409 261.327C859.046 261.327 858.727 261.38 858.451 261.485C858.176 261.585 857.944 261.731 857.757 261.925C857.575 262.112 857.435 262.341 857.335 262.61C857.235 262.88 857.177 263.182 857.159 263.516L856.676 263.551C856.676 262.953 856.734 262.399 856.852 261.89C856.969 261.38 857.145 260.932 857.379 260.545C857.619 260.158 857.918 259.856 858.275 259.64C858.639 259.423 859.058 259.314 859.532 259.314C859.661 259.314 859.799 259.326 859.945 259.35C860.098 259.373 860.212 259.399 860.288 259.429ZM866.66 267.093V262.558C866.66 262.218 866.599 261.925 866.476 261.679C866.353 261.433 866.165 261.242 865.913 261.107C865.667 260.973 865.356 260.905 864.981 260.905C864.636 260.905 864.337 260.964 864.085 261.081C863.833 261.198 863.637 261.356 863.496 261.556C863.355 261.755 863.285 261.98 863.285 262.232H861.176C861.176 261.857 861.267 261.494 861.448 261.143C861.63 260.791 861.894 260.478 862.239 260.202C862.585 259.927 862.998 259.71 863.479 259.552C863.959 259.394 864.498 259.314 865.096 259.314C865.811 259.314 866.443 259.435 866.994 259.675C867.551 259.915 867.987 260.278 868.304 260.765C868.626 261.245 868.787 261.849 868.787 262.575V266.803C868.787 267.236 868.816 267.626 868.875 267.972C868.939 268.312 869.03 268.607 869.147 268.859V269H866.977C866.877 268.771 866.798 268.481 866.739 268.13C866.687 267.772 866.66 267.427 866.66 267.093ZM866.968 263.217L866.985 264.526H865.465C865.072 264.526 864.727 264.564 864.428 264.641C864.129 264.711 863.88 264.816 863.681 264.957C863.481 265.098 863.332 265.268 863.232 265.467C863.133 265.666 863.083 265.892 863.083 266.144C863.083 266.396 863.142 266.627 863.259 266.838C863.376 267.043 863.546 267.204 863.769 267.321C863.997 267.438 864.272 267.497 864.595 267.497C865.028 267.497 865.406 267.409 865.729 267.233C866.057 267.052 866.314 266.832 866.502 266.574C866.689 266.311 866.789 266.062 866.801 265.827L867.486 266.768C867.416 267.008 867.296 267.266 867.126 267.541C866.956 267.816 866.733 268.08 866.458 268.332C866.188 268.578 865.863 268.78 865.482 268.938C865.107 269.097 864.674 269.176 864.182 269.176C863.561 269.176 863.007 269.053 862.521 268.807C862.034 268.555 861.653 268.218 861.378 267.796C861.103 267.368 860.965 266.885 860.965 266.346C860.965 265.842 861.059 265.396 861.246 265.01C861.439 264.617 861.721 264.289 862.09 264.025C862.465 263.762 862.922 263.562 863.461 263.428C864 263.287 864.615 263.217 865.307 263.217H866.968ZM873.103 261.521V269H870.984V259.49H872.979L873.103 261.521ZM872.725 263.894L872.039 263.885C872.045 263.211 872.139 262.593 872.32 262.03C872.508 261.468 872.766 260.984 873.094 260.58C873.428 260.176 873.826 259.865 874.289 259.648C874.752 259.426 875.268 259.314 875.836 259.314C876.293 259.314 876.706 259.379 877.075 259.508C877.45 259.631 877.77 259.833 878.033 260.114C878.303 260.396 878.508 260.762 878.648 261.213C878.789 261.658 878.859 262.206 878.859 262.856V269H876.732V262.848C876.732 262.391 876.665 262.03 876.53 261.767C876.401 261.497 876.211 261.307 875.959 261.195C875.713 261.078 875.405 261.02 875.036 261.02C874.673 261.02 874.348 261.096 874.061 261.248C873.773 261.4 873.53 261.608 873.331 261.872C873.138 262.136 872.988 262.44 872.883 262.786C872.777 263.132 872.725 263.501 872.725 263.894ZM885.381 259.49V261.037H880.02V259.49H885.381ZM881.566 257.161H883.685V266.372C883.685 266.665 883.726 266.891 883.808 267.049C883.896 267.201 884.016 267.304 884.168 267.356C884.32 267.409 884.499 267.436 884.704 267.436C884.851 267.436 884.991 267.427 885.126 267.409C885.261 267.392 885.369 267.374 885.451 267.356L885.46 268.974C885.284 269.026 885.079 269.073 884.845 269.114C884.616 269.155 884.353 269.176 884.054 269.176C883.567 269.176 883.137 269.091 882.762 268.921C882.387 268.745 882.094 268.461 881.883 268.068C881.672 267.676 881.566 267.154 881.566 266.504V257.161ZM891.208 269.176C890.505 269.176 889.869 269.062 889.301 268.833C888.738 268.599 888.258 268.273 887.859 267.857C887.467 267.441 887.165 266.952 886.954 266.39C886.743 265.827 886.638 265.221 886.638 264.57V264.219C886.638 263.475 886.746 262.801 886.963 262.197C887.18 261.594 887.481 261.078 887.868 260.65C888.255 260.217 888.712 259.886 889.239 259.657C889.767 259.429 890.338 259.314 890.953 259.314C891.633 259.314 892.228 259.429 892.737 259.657C893.247 259.886 893.669 260.208 894.003 260.624C894.343 261.034 894.595 261.523 894.759 262.092C894.929 262.66 895.014 263.287 895.014 263.973V264.878H887.666V263.357H892.922V263.19C892.91 262.81 892.834 262.452 892.693 262.118C892.559 261.784 892.351 261.515 892.069 261.31C891.788 261.104 891.413 261.002 890.944 261.002C890.593 261.002 890.279 261.078 890.004 261.23C889.734 261.377 889.509 261.591 889.327 261.872C889.146 262.153 889.005 262.493 888.905 262.892C888.812 263.284 888.765 263.727 888.765 264.219V264.57C888.765 264.986 888.82 265.373 888.932 265.73C889.049 266.082 889.219 266.39 889.441 266.653C889.664 266.917 889.934 267.125 890.25 267.277C890.566 267.424 890.927 267.497 891.331 267.497C891.841 267.497 892.295 267.395 892.693 267.189C893.092 266.984 893.438 266.694 893.73 266.319L894.847 267.4C894.642 267.699 894.375 267.986 894.047 268.262C893.719 268.531 893.317 268.751 892.843 268.921C892.374 269.091 891.829 269.176 891.208 269.176Z" fill="#E1E1E6"/>
<path fill-rule="evenodd" clip-rule="evenodd" d="M909.5 264C909.5 263.724 909.724 263.5 910 263.5H921C921.276 263.5 921.5 263.724 921.5 264C921.5 264.276 921.276 264.5 921 264.5H910C909.724 264.5 909.5 264.276 909.5 264Z" fill="#7C7C8A"/>
<path d="M940.992 262.477V264.691C940.992 265.652 940.89 266.481 940.685 267.179C940.479 267.87 940.184 268.438 939.797 268.884C939.416 269.323 938.962 269.648 938.435 269.859C937.907 270.07 937.321 270.176 936.677 270.176C936.161 270.176 935.681 270.111 935.235 269.982C934.79 269.848 934.389 269.64 934.031 269.358C933.68 269.077 933.375 268.723 933.117 268.295C932.865 267.861 932.672 267.346 932.537 266.748C932.402 266.15 932.335 265.465 932.335 264.691V262.477C932.335 261.516 932.438 260.692 932.643 260.007C932.854 259.315 933.149 258.75 933.53 258.311C933.917 257.871 934.374 257.549 934.901 257.344C935.429 257.133 936.015 257.027 936.659 257.027C937.175 257.027 937.652 257.095 938.092 257.229C938.537 257.358 938.938 257.561 939.296 257.836C939.653 258.111 939.958 258.466 940.21 258.899C940.462 259.327 940.655 259.84 940.79 260.438C940.925 261.029 940.992 261.709 940.992 262.477ZM938.452 265.025V262.134C938.452 261.671 938.426 261.267 938.373 260.921C938.326 260.575 938.253 260.282 938.153 260.042C938.054 259.796 937.931 259.597 937.784 259.444C937.638 259.292 937.471 259.181 937.283 259.11C937.096 259.04 936.888 259.005 936.659 259.005C936.372 259.005 936.117 259.061 935.895 259.172C935.678 259.283 935.493 259.462 935.341 259.708C935.188 259.948 935.071 260.271 934.989 260.675C934.913 261.073 934.875 261.56 934.875 262.134V265.025C934.875 265.488 934.898 265.896 934.945 266.247C934.998 266.599 935.074 266.9 935.174 267.152C935.279 267.398 935.402 267.601 935.543 267.759C935.689 267.911 935.856 268.022 936.044 268.093C936.237 268.163 936.448 268.198 936.677 268.198C936.958 268.198 937.207 268.143 937.424 268.031C937.646 267.914 937.834 267.732 937.986 267.486C938.145 267.234 938.262 266.906 938.338 266.502C938.414 266.098 938.452 265.605 938.452 265.025ZM951.328 262.477V264.691C951.328 265.652 951.226 266.481 951.021 267.179C950.815 267.87 950.52 268.438 950.133 268.884C949.752 269.323 949.298 269.648 948.771 269.859C948.243 270.07 947.657 270.176 947.013 270.176C946.497 270.176 946.017 270.111 945.571 269.982C945.126 269.848 944.725 269.64 944.367 269.358C944.016 269.077 943.711 268.723 943.453 268.295C943.201 267.861 943.008 267.346 942.873 266.748C942.738 266.15 942.671 265.465 942.671 264.691V262.477C942.671 261.516 942.773 260.692 942.979 260.007C943.189 259.315 943.485 258.75 943.866 258.311C944.253 257.871 944.71 257.549 945.237 257.344C945.765 257.133 946.351 257.027 946.995 257.027C947.511 257.027 947.988 257.095 948.428 257.229C948.873 257.358 949.274 257.561 949.632 257.836C949.989 258.111 950.294 258.466 950.546 258.899C950.798 259.327 950.991 259.84 951.126 260.438C951.261 261.029 951.328 261.709 951.328 262.477ZM948.788 265.025V262.134C948.788 261.671 948.762 261.267 948.709 260.921C948.662 260.575 948.589 260.282 948.489 260.042C948.39 259.796 948.267 259.597 948.12 259.444C947.974 259.292 947.807 259.181 947.619 259.11C947.432 259.04 947.224 259.005 946.995 259.005C946.708 259.005 946.453 259.061 946.23 259.172C946.014 259.283 945.829 259.462 945.677 259.708C945.524 259.948 945.407 260.271 945.325 260.675C945.249 261.073 945.211 261.56 945.211 262.134V265.025C945.211 265.488 945.234 265.896 945.281 266.247C945.334 266.599 945.41 266.9 945.51 267.152C945.615 267.398 945.738 267.601 945.879 267.759C946.025 267.911 946.192 268.022 946.38 268.093C946.573 268.163 946.784 268.198 947.013 268.198C947.294 268.198 947.543 268.143 947.76 268.031C947.982 267.914 948.17 267.732 948.322 267.486C948.48 267.234 948.598 266.906 948.674 266.502C948.75 266.098 948.788 265.605 948.788 265.025Z" fill="#7C7C8A"/>
<path fill-rule="evenodd" clip-rule="evenodd" d="M962.5 264C962.5 263.724 962.724 263.5 963 263.5H974C974.276 263.5 974.5 263.724 974.5 264C974.5 264.276 974.276 264.5 974 264.5H963C962.724 264.5 962.5 264.276 962.5 264Z" fill="#7C7C8A"/>
<path fill-rule="evenodd" clip-rule="evenodd" d="M968.5 258C968.776 258 969 258.224 969 258.5V269.5C969 269.776 968.776 270 968.5 270C968.224 270 968 269.776 968 269.5V258.5C968 258.224 968.224 258 968.5 258Z" fill="#7C7C8A"/>
<path d="M906 244H978H906ZM978 286H906V282H978V286ZM906 284V244V284ZM978 244V284V244Z" fill="#7C7C8A" mask="url(#path-21-inside-2_127_2340)"/>
<path d="M989.516 261.459V269H986.976V259.49H989.357L989.516 261.459ZM989.164 263.911H988.461C988.461 263.249 988.54 262.64 988.698 262.083C988.862 261.521 989.1 261.034 989.41 260.624C989.727 260.208 990.116 259.886 990.579 259.657C991.042 259.429 991.578 259.314 992.188 259.314C992.609 259.314 992.996 259.379 993.348 259.508C993.699 259.631 994.001 259.827 994.253 260.097C994.511 260.36 994.71 260.706 994.851 261.134C994.991 261.556 995.062 262.062 995.062 262.654V269H992.53V262.936C992.53 262.502 992.472 262.168 992.354 261.934C992.237 261.699 992.07 261.535 991.854 261.441C991.643 261.348 991.388 261.301 991.089 261.301C990.761 261.301 990.474 261.368 990.228 261.503C989.987 261.638 989.788 261.825 989.63 262.065C989.472 262.3 989.354 262.575 989.278 262.892C989.202 263.208 989.164 263.548 989.164 263.911ZM994.824 263.621L993.919 263.735C993.919 263.114 993.995 262.537 994.147 262.004C994.306 261.471 994.537 261.002 994.842 260.598C995.152 260.193 995.536 259.88 995.993 259.657C996.45 259.429 996.978 259.314 997.575 259.314C998.032 259.314 998.448 259.382 998.823 259.517C999.198 259.646 999.518 259.854 999.781 260.141C1000.05 260.422 1000.26 260.791 1000.4 261.248C1000.54 261.705 1000.62 262.265 1000.62 262.927V269H998.076V262.927C998.076 262.487 998.018 262.153 997.9 261.925C997.789 261.69 997.625 261.529 997.408 261.441C997.197 261.348 996.945 261.301 996.652 261.301C996.348 261.301 996.081 261.362 995.853 261.485C995.624 261.603 995.434 261.767 995.281 261.978C995.129 262.188 995.015 262.435 994.938 262.716C994.862 262.991 994.824 263.293 994.824 263.621ZM1005.25 259.49V269H1002.71V259.49H1005.25ZM1002.55 257.012C1002.55 256.643 1002.68 256.338 1002.94 256.098C1003.19 255.857 1003.54 255.737 1003.97 255.737C1004.4 255.737 1004.74 255.857 1005 256.098C1005.27 256.338 1005.4 256.643 1005.4 257.012C1005.4 257.381 1005.27 257.686 1005 257.926C1004.74 258.166 1004.4 258.286 1003.97 258.286C1003.54 258.286 1003.19 258.166 1002.94 257.926C1002.68 257.686 1002.55 257.381 1002.55 257.012ZM1009.82 261.521V269H1007.29V259.49H1009.66L1009.82 261.521ZM1009.45 263.911H1008.76C1008.76 263.208 1008.85 262.575 1009.04 262.013C1009.22 261.444 1009.47 260.961 1009.8 260.562C1010.13 260.158 1010.52 259.851 1010.97 259.64C1011.43 259.423 1011.94 259.314 1012.5 259.314C1012.94 259.314 1013.35 259.379 1013.72 259.508C1014.09 259.637 1014.41 259.842 1014.67 260.123C1014.94 260.404 1015.14 260.776 1015.29 261.239C1015.43 261.702 1015.5 262.268 1015.5 262.936V269H1012.96V262.927C1012.96 262.505 1012.9 262.177 1012.78 261.942C1012.66 261.708 1012.49 261.544 1012.26 261.45C1012.04 261.351 1011.76 261.301 1011.44 261.301C1011.1 261.301 1010.8 261.368 1010.55 261.503C1010.3 261.638 1010.1 261.825 1009.93 262.065C1009.77 262.3 1009.65 262.575 1009.57 262.892C1009.49 263.208 1009.45 263.548 1009.45 263.911ZM1023.05 266.724V259.49H1025.59V269H1023.2L1023.05 266.724ZM1023.34 264.772L1024.08 264.755C1024.08 265.388 1024.01 265.977 1023.86 266.521C1023.72 267.061 1023.5 267.529 1023.2 267.928C1022.91 268.32 1022.54 268.628 1022.1 268.851C1021.65 269.067 1021.13 269.176 1020.52 269.176C1020.06 269.176 1019.63 269.111 1019.24 268.982C1018.85 268.848 1018.52 268.64 1018.24 268.358C1017.96 268.071 1017.75 267.705 1017.59 267.26C1017.44 266.809 1017.36 266.267 1017.36 265.634V259.49H1019.89V265.651C1019.89 265.933 1019.92 266.17 1019.99 266.363C1020.06 266.557 1020.15 266.715 1020.28 266.838C1020.4 266.961 1020.54 267.049 1020.71 267.102C1020.88 267.154 1021.07 267.181 1021.27 267.181C1021.79 267.181 1022.2 267.075 1022.5 266.864C1022.81 266.653 1023.02 266.366 1023.14 266.003C1023.27 265.634 1023.34 265.224 1023.34 264.772ZM1032.18 259.49V261.283H1026.64V259.49H1032.18ZM1028.01 257.144H1030.54V266.135C1030.54 266.41 1030.58 266.621 1030.65 266.768C1030.72 266.914 1030.84 267.017 1030.98 267.075C1031.13 267.128 1031.31 267.154 1031.54 267.154C1031.69 267.154 1031.83 267.148 1031.96 267.137C1032.09 267.119 1032.2 267.102 1032.28 267.084L1032.29 268.947C1032.08 269.018 1031.84 269.073 1031.59 269.114C1031.34 269.155 1031.06 269.176 1030.75 269.176C1030.2 269.176 1029.71 269.085 1029.29 268.903C1028.88 268.716 1028.57 268.417 1028.35 268.007C1028.12 267.597 1028.01 267.058 1028.01 266.39V257.144ZM1032.99 264.342V264.157C1032.99 263.46 1033.09 262.818 1033.29 262.232C1033.48 261.641 1033.77 261.128 1034.16 260.694C1034.54 260.261 1035 259.924 1035.56 259.684C1036.12 259.438 1036.76 259.314 1037.48 259.314C1038.2 259.314 1038.84 259.438 1039.4 259.684C1039.96 259.924 1040.44 260.261 1040.82 260.694C1041.2 261.128 1041.5 261.641 1041.7 262.232C1041.9 262.818 1042 263.46 1042 264.157V264.342C1042 265.033 1041.9 265.675 1041.7 266.267C1041.5 266.853 1041.2 267.365 1040.82 267.805C1040.44 268.238 1039.97 268.575 1039.41 268.815C1038.85 269.056 1038.22 269.176 1037.5 269.176C1036.77 269.176 1036.13 269.056 1035.57 268.815C1035.01 268.575 1034.54 268.238 1034.16 267.805C1033.77 267.365 1033.48 266.853 1033.29 266.267C1033.09 265.675 1032.99 265.033 1032.99 264.342ZM1035.52 264.157V264.342C1035.52 264.74 1035.55 265.112 1035.62 265.458C1035.69 265.804 1035.8 266.108 1035.96 266.372C1036.12 266.63 1036.32 266.832 1036.57 266.979C1036.82 267.125 1037.13 267.198 1037.5 267.198C1037.85 267.198 1038.15 267.125 1038.4 266.979C1038.65 266.832 1038.85 266.63 1039.01 266.372C1039.16 266.108 1039.27 265.804 1039.34 265.458C1039.42 265.112 1039.46 264.74 1039.46 264.342V264.157C1039.46 263.771 1039.42 263.407 1039.34 263.067C1039.27 262.722 1039.16 262.417 1039 262.153C1038.85 261.884 1038.64 261.673 1038.39 261.521C1038.14 261.368 1037.83 261.292 1037.48 261.292C1037.12 261.292 1036.82 261.368 1036.56 261.521C1036.32 261.673 1036.12 261.884 1035.96 262.153C1035.8 262.417 1035.69 262.722 1035.62 263.067C1035.55 263.407 1035.52 263.771 1035.52 264.157ZM1048.69 266.372C1048.69 266.19 1048.64 266.026 1048.53 265.88C1048.43 265.733 1048.23 265.599 1047.95 265.476C1047.66 265.347 1047.26 265.229 1046.72 265.124C1046.24 265.019 1045.79 264.887 1045.38 264.729C1044.97 264.564 1044.61 264.368 1044.31 264.14C1044.01 263.911 1043.77 263.642 1043.6 263.331C1043.43 263.015 1043.35 262.654 1043.35 262.25C1043.35 261.852 1043.43 261.477 1043.6 261.125C1043.78 260.773 1044.03 260.463 1044.35 260.193C1044.68 259.918 1045.08 259.704 1045.55 259.552C1046.02 259.394 1046.55 259.314 1047.15 259.314C1047.97 259.314 1048.68 259.446 1049.27 259.71C1049.87 259.974 1050.33 260.337 1050.64 260.8C1050.97 261.257 1051.13 261.778 1051.13 262.364H1048.6C1048.6 262.118 1048.54 261.898 1048.44 261.705C1048.34 261.506 1048.18 261.351 1047.96 261.239C1047.75 261.122 1047.48 261.063 1047.14 261.063C1046.86 261.063 1046.61 261.113 1046.41 261.213C1046.2 261.307 1046.04 261.436 1045.93 261.6C1045.83 261.758 1045.77 261.934 1045.77 262.127C1045.77 262.273 1045.8 262.405 1045.86 262.522C1045.93 262.634 1046.03 262.736 1046.17 262.83C1046.31 262.924 1046.49 263.012 1046.71 263.094C1046.94 263.17 1047.22 263.24 1047.56 263.305C1048.24 263.445 1048.86 263.63 1049.4 263.858C1049.93 264.081 1050.36 264.386 1050.68 264.772C1051 265.153 1051.15 265.654 1051.15 266.275C1051.15 266.697 1051.06 267.084 1050.87 267.436C1050.68 267.787 1050.42 268.095 1050.06 268.358C1049.71 268.616 1049.29 268.818 1048.8 268.965C1048.31 269.105 1047.76 269.176 1047.15 269.176C1046.27 269.176 1045.52 269.018 1044.9 268.701C1044.29 268.385 1043.83 267.983 1043.52 267.497C1043.21 267.005 1043.05 266.501 1043.05 265.985H1045.45C1045.46 266.331 1045.55 266.609 1045.71 266.82C1045.88 267.031 1046.1 267.184 1046.35 267.277C1046.62 267.371 1046.9 267.418 1047.21 267.418C1047.54 267.418 1047.81 267.374 1048.02 267.286C1048.24 267.192 1048.41 267.069 1048.52 266.917C1048.63 266.759 1048.69 266.577 1048.69 266.372ZM1052.92 267.778C1052.92 267.403 1053.05 267.09 1053.31 266.838C1053.57 266.586 1053.92 266.46 1054.35 266.46C1054.79 266.46 1055.13 266.586 1055.39 266.838C1055.65 267.09 1055.79 267.403 1055.79 267.778C1055.79 268.153 1055.65 268.467 1055.39 268.719C1055.13 268.971 1054.79 269.097 1054.35 269.097C1053.92 269.097 1053.57 268.971 1053.31 268.719C1053.05 268.467 1052.92 268.153 1052.92 267.778Z" fill="#E1E1E6"/>
<rect x="402" y="598.18" width="648" height="64" rx="8" fill="#00875F"/>
<path fill-rule="evenodd" clip-rule="evenodd" d="M680.433 618.414C680.716 618.254 681.035 618.173 681.359 618.181C681.681 618.188 681.996 618.282 682.271 618.454C682.272 618.454 682.272 618.455 682.273 618.455L698.62 628.605C698.887 628.767 699.108 628.996 699.263 629.271C699.418 629.548 699.5 629.861 699.5 630.18C699.5 630.499 699.418 630.812 699.263 631.089C699.108 631.364 698.887 631.593 698.62 631.755L682.273 641.905C682.272 641.906 682.272 641.906 682.271 641.907C681.996 642.078 681.681 642.172 681.359 642.18C681.035 642.187 680.716 642.107 680.433 641.947C680.151 641.787 679.915 641.553 679.751 641.27C679.587 640.987 679.5 640.664 679.5 640.336V620.024C679.5 619.696 679.587 619.374 679.751 619.09C679.915 618.807 680.151 618.574 680.433 618.414ZM698.15 629.395L697.681 630.174L697.687 630.17C697.685 630.171 697.684 630.173 697.683 630.174C697.682 630.176 697.682 630.178 697.682 630.18C697.682 630.182 697.682 630.184 697.683 630.186C697.684 630.188 697.685 630.189 697.687 630.19L698.15 629.395ZM697.671 630.18L681.318 620.026L681.318 640.334L681.321 640.332L697.671 630.18Z" fill="#E1E1E6"/>
<path d="M715.227 631.407H717.562C717.516 632.172 717.305 632.852 716.93 633.446C716.56 634.04 716.042 634.503 715.375 634.836C714.714 635.17 713.917 635.336 712.984 635.336C712.255 635.336 711.602 635.211 711.023 634.961C710.445 634.706 709.951 634.342 709.539 633.868C709.133 633.394 708.823 632.821 708.609 632.149C708.396 631.477 708.289 630.724 708.289 629.891V629.102C708.289 628.269 708.398 627.516 708.617 626.844C708.841 626.167 709.159 625.592 709.57 625.118C709.987 624.644 710.484 624.279 711.062 624.024C711.641 623.769 712.286 623.641 713 623.641C713.948 623.641 714.747 623.813 715.398 624.157C716.055 624.5 716.562 624.974 716.922 625.579C717.286 626.183 717.505 626.87 717.578 627.641H715.234C715.208 627.183 715.117 626.795 714.961 626.477C714.805 626.154 714.568 625.912 714.25 625.75C713.938 625.584 713.521 625.5 713 625.5C712.609 625.5 712.268 625.573 711.977 625.719C711.685 625.865 711.44 626.086 711.242 626.383C711.044 626.68 710.896 627.055 710.797 627.508C710.703 627.956 710.656 628.482 710.656 629.086V629.891C710.656 630.48 710.701 630.998 710.789 631.446C710.878 631.889 711.013 632.264 711.195 632.571C711.383 632.873 711.622 633.102 711.914 633.258C712.211 633.409 712.568 633.485 712.984 633.485C713.474 633.485 713.878 633.407 714.195 633.25C714.513 633.094 714.755 632.862 714.922 632.555C715.094 632.248 715.195 631.865 715.227 631.407ZM718.602 631.04V630.875C718.602 630.256 718.69 629.685 718.867 629.165C719.044 628.639 719.302 628.183 719.641 627.797C719.979 627.412 720.396 627.112 720.891 626.899C721.385 626.68 721.953 626.571 722.594 626.571C723.234 626.571 723.805 626.68 724.305 626.899C724.805 627.112 725.224 627.412 725.562 627.797C725.906 628.183 726.167 628.639 726.344 629.165C726.521 629.685 726.609 630.256 726.609 630.875V631.04C726.609 631.654 726.521 632.224 726.344 632.75C726.167 633.271 725.906 633.727 725.562 634.118C725.224 634.503 724.807 634.803 724.312 635.016C723.818 635.23 723.25 635.336 722.609 635.336C721.969 635.336 721.398 635.23 720.898 635.016C720.404 634.803 719.984 634.503 719.641 634.118C719.302 633.727 719.044 633.271 718.867 632.75C718.69 632.224 718.602 631.654 718.602 631.04ZM720.852 630.875V631.04C720.852 631.394 720.883 631.724 720.945 632.032C721.008 632.339 721.107 632.61 721.242 632.844C721.383 633.073 721.565 633.253 721.789 633.383C722.013 633.514 722.286 633.579 722.609 633.579C722.922 633.579 723.19 633.514 723.414 633.383C723.638 633.253 723.818 633.073 723.953 632.844C724.089 632.61 724.188 632.339 724.25 632.032C724.318 631.724 724.352 631.394 724.352 631.04V630.875C724.352 630.532 724.318 630.209 724.25 629.907C724.188 629.599 724.086 629.329 723.945 629.094C723.81 628.855 723.63 628.667 723.406 628.532C723.182 628.396 722.911 628.329 722.594 628.329C722.276 628.329 722.005 628.396 721.781 628.532C721.562 628.667 721.383 628.855 721.242 629.094C721.107 629.329 721.008 629.599 720.945 629.907C720.883 630.209 720.852 630.532 720.852 630.875ZM730.242 628.477V635.18H727.984V626.727H730.102L730.242 628.477ZM729.93 630.657H729.305C729.305 630.068 729.375 629.527 729.516 629.032C729.661 628.532 729.872 628.099 730.148 627.735C730.43 627.365 730.776 627.079 731.188 626.875C731.599 626.672 732.076 626.571 732.617 626.571C732.992 626.571 733.336 626.628 733.648 626.743C733.961 626.852 734.229 627.027 734.453 627.266C734.682 627.5 734.859 627.808 734.984 628.188C735.109 628.563 735.172 629.014 735.172 629.54V635.18H732.922V629.79C732.922 629.404 732.87 629.107 732.766 628.899C732.661 628.691 732.513 628.545 732.32 628.461C732.133 628.378 731.906 628.336 731.641 628.336C731.349 628.336 731.094 628.396 730.875 628.516C730.661 628.636 730.484 628.803 730.344 629.016C730.203 629.224 730.099 629.469 730.031 629.75C729.964 630.032 729.93 630.334 729.93 630.657ZM734.961 630.399L734.156 630.5C734.156 629.948 734.224 629.435 734.359 628.961C734.5 628.487 734.706 628.071 734.977 627.711C735.253 627.352 735.594 627.073 736 626.875C736.406 626.672 736.875 626.571 737.406 626.571C737.812 626.571 738.182 626.631 738.516 626.75C738.849 626.865 739.133 627.05 739.367 627.305C739.607 627.555 739.789 627.883 739.914 628.29C740.044 628.696 740.109 629.193 740.109 629.782V635.18H737.852V629.782C737.852 629.391 737.799 629.094 737.695 628.891C737.596 628.683 737.451 628.54 737.258 628.461C737.07 628.378 736.846 628.336 736.586 628.336C736.315 628.336 736.078 628.391 735.875 628.5C735.672 628.605 735.503 628.75 735.367 628.938C735.232 629.125 735.13 629.344 735.062 629.594C734.995 629.839 734.961 630.107 734.961 630.399ZM745.742 635.336C745.086 635.336 744.497 635.232 743.977 635.024C743.456 634.81 743.013 634.516 742.648 634.141C742.289 633.766 742.013 633.331 741.82 632.836C741.628 632.336 741.531 631.805 741.531 631.243V630.93C741.531 630.29 741.622 629.704 741.805 629.172C741.987 628.641 742.247 628.18 742.586 627.79C742.93 627.399 743.346 627.099 743.836 626.891C744.326 626.678 744.878 626.571 745.492 626.571C746.091 626.571 746.622 626.67 747.086 626.868C747.549 627.066 747.938 627.347 748.25 627.711C748.568 628.076 748.807 628.514 748.969 629.024C749.13 629.529 749.211 630.092 749.211 630.711V631.649H742.492V630.149H747V629.977C747 629.665 746.943 629.386 746.828 629.141C746.719 628.891 746.552 628.693 746.328 628.547C746.104 628.402 745.818 628.329 745.469 628.329C745.172 628.329 744.917 628.394 744.703 628.524C744.49 628.654 744.315 628.836 744.18 629.071C744.049 629.305 743.951 629.581 743.883 629.899C743.82 630.211 743.789 630.555 743.789 630.93V631.243C743.789 631.581 743.836 631.894 743.93 632.18C744.029 632.467 744.167 632.714 744.344 632.922C744.526 633.131 744.745 633.292 745 633.407C745.26 633.521 745.555 633.579 745.883 633.579C746.289 633.579 746.667 633.5 747.016 633.344C747.37 633.183 747.674 632.941 747.93 632.618L749.023 633.805C748.846 634.06 748.604 634.305 748.297 634.54C747.995 634.774 747.63 634.967 747.203 635.118C746.776 635.264 746.289 635.336 745.742 635.336ZM753.984 633.579C754.26 633.579 754.505 633.527 754.719 633.422C754.932 633.313 755.099 633.162 755.219 632.969C755.344 632.771 755.409 632.54 755.414 632.274H757.531C757.526 632.868 757.367 633.396 757.055 633.86C756.742 634.318 756.323 634.68 755.797 634.946C755.271 635.206 754.682 635.336 754.031 635.336C753.375 635.336 752.802 635.227 752.312 635.008C751.828 634.79 751.424 634.487 751.102 634.102C750.779 633.711 750.536 633.258 750.375 632.743C750.214 632.222 750.133 631.665 750.133 631.071V630.844C750.133 630.245 750.214 629.688 750.375 629.172C750.536 628.652 750.779 628.198 751.102 627.813C751.424 627.422 751.828 627.118 752.312 626.899C752.797 626.68 753.365 626.571 754.016 626.571C754.708 626.571 755.315 626.704 755.836 626.969C756.362 627.235 756.773 627.615 757.07 628.11C757.372 628.599 757.526 629.18 757.531 629.852H755.414C755.409 629.571 755.349 629.316 755.234 629.086C755.125 628.857 754.964 628.675 754.75 628.54C754.542 628.399 754.284 628.329 753.977 628.329C753.648 628.329 753.38 628.399 753.172 628.54C752.964 628.675 752.802 628.862 752.688 629.102C752.573 629.336 752.492 629.605 752.445 629.907C752.404 630.204 752.383 630.516 752.383 630.844V631.071C752.383 631.399 752.404 631.714 752.445 632.016C752.487 632.318 752.565 632.586 752.68 632.821C752.799 633.055 752.964 633.24 753.172 633.375C753.38 633.511 753.651 633.579 753.984 633.579ZM753.141 635.149H754.836L754.75 635.61C755.047 635.662 755.318 635.787 755.562 635.985C755.807 636.183 755.93 636.508 755.93 636.961C755.93 637.237 755.87 637.487 755.75 637.711C755.635 637.935 755.464 638.128 755.234 638.29C755.005 638.456 754.719 638.581 754.375 638.665C754.031 638.753 753.635 638.797 753.188 638.797L753.133 637.547C753.299 637.547 753.451 637.524 753.586 637.477C753.721 637.43 753.828 637.357 753.906 637.258C753.984 637.165 754.023 637.04 754.023 636.883C754.023 636.737 753.984 636.623 753.906 636.54C753.828 636.456 753.706 636.394 753.539 636.352C753.378 636.31 753.164 636.282 752.898 636.266L753.141 635.149ZM763.398 633.274V629.508C763.398 629.237 763.354 629.006 763.266 628.813C763.177 628.615 763.039 628.461 762.852 628.352C762.669 628.243 762.432 628.188 762.141 628.188C761.891 628.188 761.674 628.232 761.492 628.321C761.31 628.404 761.169 628.527 761.07 628.688C760.971 628.844 760.922 629.029 760.922 629.243H758.672C758.672 628.883 758.755 628.542 758.922 628.219C759.089 627.896 759.331 627.612 759.648 627.368C759.966 627.118 760.344 626.922 760.781 626.782C761.224 626.641 761.719 626.571 762.266 626.571C762.922 626.571 763.505 626.68 764.016 626.899C764.526 627.118 764.927 627.446 765.219 627.883C765.516 628.321 765.664 628.868 765.664 629.524V633.141C765.664 633.605 765.693 633.985 765.75 634.282C765.807 634.573 765.891 634.829 766 635.047V635.18H763.727C763.617 634.951 763.534 634.665 763.477 634.321C763.424 633.972 763.398 633.623 763.398 633.274ZM763.695 630.032L763.711 631.305H762.453C762.156 631.305 761.898 631.339 761.68 631.407C761.461 631.474 761.281 631.571 761.141 631.696C761 631.816 760.896 631.956 760.828 632.118C760.766 632.279 760.734 632.456 760.734 632.649C760.734 632.842 760.779 633.016 760.867 633.172C760.956 633.323 761.083 633.443 761.25 633.532C761.417 633.615 761.612 633.657 761.836 633.657C762.174 633.657 762.469 633.589 762.719 633.454C762.969 633.318 763.161 633.152 763.297 632.954C763.438 632.756 763.51 632.568 763.516 632.391L764.109 633.344C764.026 633.558 763.911 633.779 763.766 634.008C763.625 634.237 763.445 634.454 763.227 634.657C763.008 634.855 762.745 635.019 762.438 635.149C762.13 635.274 761.766 635.336 761.344 635.336C760.807 635.336 760.32 635.23 759.883 635.016C759.451 634.797 759.107 634.498 758.852 634.118C758.602 633.732 758.477 633.295 758.477 632.805C758.477 632.362 758.56 631.969 758.727 631.625C758.893 631.282 759.138 630.993 759.461 630.758C759.789 630.519 760.198 630.339 760.688 630.219C761.177 630.094 761.745 630.032 762.391 630.032H763.695ZM769.648 628.571V635.18H767.398V626.727H769.516L769.648 628.571ZM772.195 626.672L772.156 628.758C772.047 628.743 771.914 628.73 771.758 628.719C771.607 628.704 771.469 628.696 771.344 628.696C771.026 628.696 770.75 628.737 770.516 628.821C770.286 628.899 770.094 629.016 769.938 629.172C769.786 629.329 769.672 629.519 769.594 629.743C769.521 629.967 769.479 630.222 769.469 630.508L769.016 630.368C769.016 629.821 769.07 629.318 769.18 628.86C769.289 628.396 769.448 627.993 769.656 627.649C769.87 627.305 770.13 627.04 770.438 626.852C770.745 626.665 771.096 626.571 771.492 626.571C771.617 626.571 771.745 626.581 771.875 626.602C772.005 626.618 772.112 626.641 772.195 626.672Z" fill="#E1E1E6"/>
</svg>
